<?xml version="1.0" encoding="UTF-8" standalone="no"?>
<svg
   xmlns:dc="http://purl.org/dc/elements/1.1/"
   xmlns:cc="http://creativecommons.org/ns#"
   xmlns:rdf="http://www.w3.org/1999/02/22-rdf-syntax-ns#"
   xmlns:svg="http://www.w3.org/2000/svg"
   xmlns="http://www.w3.org/2000/svg"
   xmlns:sodipodi="http://sodipodi.sourceforge.net/DTD/sodipodi-0.dtd"
   xmlns:inkscape="http://www.inkscape.org/namespaces/inkscape"
   width="800pt"
   height="270pt"
   viewBox="0 0 282.22223 95.249968"
   version="1.1"
   id="svg8"
   sodipodi:docname="fosslk_logo_BW.svg"
   inkscape:version="0.92.2 5c3e80d, 2017-08-06">
  <sodipodi:namedview
     pagecolor="#ffffff"
     bordercolor="#666666"
     borderopacity="1"
     objecttolerance="10"
     gridtolerance="10"
     guidetolerance="10"
     inkscape:pageopacity="0"
     inkscape:pageshadow="2"
     inkscape:window-width="1661"
     inkscape:window-height="1017"
     id="namedview24"
     showgrid="false"
     units="pt"
     inkscape:zoom="0.635"
     inkscape:cx="412.59842"
     inkscape:cy="113.38583"
     inkscape:window-x="148"
     inkscape:window-y="27"
     inkscape:window-maximized="0"
     inkscape:current-layer="g2478" />
  <defs
     id="defs2" />
  <metadata
     id="metadata5">
    <rdf:RDF>
      <cc:Work
         rdf:about="">
        <dc:format>image/svg+xml</dc:format>
        <dc:type
           rdf:resource="http://purl.org/dc/dcmitype/StillImage" />
        <dc:title />
      </cc:Work>
    </rdf:RDF>
  </metadata>
  <g
     id="layer1"
     transform="matrix(2.178067,0,0,2.178067,-5.9382759,-530.26464)">
    <g
       transform="matrix(0.23691081,0,0,0.23691081,1.3641011,3.5819076)"
       style="font-style:normal;font-weight:normal;font-size:40px;line-height:1.25;font-family:sans-serif;letter-spacing:0px;word-spacing:0px;fill:#000000;fill-opacity:1;stroke:none"
       id="flowRoot815" />
    <g
       style="font-style:normal;font-variant:normal;font-weight:bold;font-stretch:normal;font-size:3.51509285px;line-height:1.25;font-family:'Space Mono';-inkscape-font-specification:'Space Mono Bold';letter-spacing:0px;word-spacing:0px;fill:#000000;fill-opacity:1;stroke:none;stroke-width:0.08787732"
       id="text4839" />
    <g
       transform="matrix(0.23691081,0,0,0.23691081,1.3641011,3.5819076)"
       style="font-style:normal;font-weight:normal;font-size:40px;line-height:1.25;font-family:sans-serif;letter-spacing:0px;word-spacing:0px;fill:#000000;fill-opacity:1;stroke:none"
       id="flowRoot1501" />
    <g
       style="font-style:normal;font-variant:normal;font-weight:bold;font-stretch:normal;font-size:3.51509285px;line-height:1.25;font-family:'Space Mono';-inkscape-font-specification:'Space Mono Bold';letter-spacing:0px;word-spacing:0px;fill:#000000;fill-opacity:1;stroke:none;stroke-width:0.08787732"
       id="text1505" />
    <g
       transform="matrix(0.23691081,0,0,0.23691081,213.03077,3.5819076)"
       style="font-style:normal;font-weight:normal;font-size:40px;line-height:1.25;font-family:sans-serif;letter-spacing:0px;word-spacing:0px;fill:#000000;fill-opacity:1;stroke:none"
       id="flowRoot2404" />
    <g
       style="font-style:normal;font-variant:normal;font-weight:bold;font-stretch:normal;font-size:3.51509285px;line-height:1.25;font-family:'Space Mono';-inkscape-font-specification:'Space Mono Bold';letter-spacing:0px;word-spacing:0px;fill:#000000;fill-opacity:1;stroke:none;stroke-width:0.08787732"
       id="text2408" />
    <g
       transform="matrix(0.89541096,0,0,0.89541096,2.120058,-21.364521)"
       id="g2478">
      <g
         aria-label="o"
         transform="matrix(0.87014034,0,0,0.88041563,-82.756659,58.408001)"
         style="font-style:normal;font-weight:normal;font-size:40px;line-height:1.25;font-family:sans-serif;letter-spacing:0px;word-spacing:0px;fill:#ff6600;fill-opacity:1;stroke:none"
         id="flowRoot2416">
        <path
           d="m 139.16551,284.37429 c -5.46133,2.13333 -19.88267,12.37333 -19.88267,23.04 0,7.33867 5.97334,10.496 13.22667,10.496 13.48267,0 19.456,-12.88534 19.456,-23.63734 -0.0853,-7.76533 -1.36533,-15.53066 -9.38667,-15.53066 -4.94933,0 -7.25333,2.98666 -8.36266,4.18133 0,0.17067 0.256,0.17067 0.34133,0.17067 1.62133,-0.85334 3.66933,-1.792 5.632,-1.792 3.92533,0 5.03467,4.69333 5.03467,11.09333 0,7.33867 -2.56,17.57867 -11.94667,17.57867 -3.584,0 -7.25333,-2.048 -7.25333,-6.05867 0,-6.4 6.99733,-13.73867 13.39733,-19.2 0,-0.0853 -0.0853,-0.34133 -0.256,-0.34133 z"
           style="font-style:normal;font-variant:normal;font-weight:normal;font-stretch:normal;font-size:85.33333588px;font-family:flosslk;-inkscape-font-specification:flosslk;fill:#ff6600;fill-opacity:1"
           id="path2315"
           inkscape:connector-curvature="0" />
      </g>
      <g
         aria-label="f  ss.lk"
         transform="matrix(2.538043,0,-0.25763505,2.538043,-114.99921,-79.729989)"
         style="font-style:normal;font-weight:normal;font-size:13.54167175px;line-height:1.25;font-family:sans-serif;letter-spacing:0px;word-spacing:0px;fill:#4400aa;fill-opacity:1;stroke:none;stroke-width:0.33854181"
         id="g2430">
        <path
           d="m 63.159859,155.71576 h 1.909375 v -1.38125 q 0,-0.58229 0.392709,-0.975 0.392708,-0.40625 0.975,-0.40625 h 2.735418 v 1.625 H 67.14111 q -0.365625,0 -0.365625,0.40625 v 0.73125 h 2.640626 v 1.62501 h -2.640626 v 5.09166 h -1.706251 v -5.09166 h -1.909375 z"
           style="font-style:normal;font-variant:normal;font-weight:bold;font-stretch:normal;font-family:'Space Mono';-inkscape-font-specification:'Space Mono Bold';fill:#4400aa;fill-opacity:1;stroke-width:0.33854181"
           id="path2418"
           inkscape:connector-curvature="0" />
        <path
           d="m 84.135672,157.6116 q 0,0.325 0.338542,0.47396 0.338542,0.13541 1.232292,0.23021 1.029167,0.10833 1.679167,0.62291 0.650001,0.50104 0.650001,1.40834 v 0.0813 q 0,1.00208 -0.731251,1.59791 -0.73125,0.59584 -2.058334,0.59584 -0.785417,0 -1.340625,-0.20313 -0.555209,-0.20312 -0.920834,-0.50104 -0.365625,-0.31146 -0.56875,-0.67708 -0.189584,-0.37917 -0.257292,-0.73125 l 1.570834,-0.51459 q 0.108333,0.43334 0.446875,0.75834 0.352084,0.325 1.069792,0.325 0.636459,0 0.866667,-0.18959 0.24375,-0.20312 0.24375,-0.43333 0,-0.13542 -0.06771,-0.24375 -0.05417,-0.12188 -0.216667,-0.21667 -0.1625,-0.10833 -0.446875,-0.17604 -0.270833,-0.0677 -0.690625,-0.10833 -1.137501,-0.0948 -1.814584,-0.58229 -0.663542,-0.50105 -0.663542,-1.4625 v -0.0813 q 0,-0.50105 0.216667,-0.88021 0.216666,-0.37917 0.56875,-0.63646 0.352083,-0.27084 0.8125,-0.40625 0.460417,-0.13542 0.947917,-0.13542 0.636459,0 1.096876,0.1625 0.473958,0.14896 0.798958,0.40625 0.325,0.24375 0.528125,0.55521 0.203125,0.29792 0.311459,0.58229 l -1.543751,0.62292 q -0.121875,-0.36563 -0.419792,-0.56875 -0.297916,-0.21667 -0.771875,-0.21667 -0.433333,0 -0.65,0.1625 -0.216667,0.14896 -0.216667,0.37917 z"
           style="font-style:normal;font-variant:normal;font-weight:bold;font-stretch:normal;font-family:'Space Mono';-inkscape-font-specification:'Space Mono Bold';fill:#4400aa;fill-opacity:1;stroke-width:0.33854181"
           id="path2420"
           inkscape:connector-curvature="0" />
        <path
           d="m 92.028134,157.6116 q 0,0.325 0.338542,0.47396 0.338542,0.13541 1.232292,0.23021 1.029167,0.10833 1.679168,0.62291 0.65,0.50104 0.65,1.40834 v 0.0813 q 0,1.00208 -0.73125,1.59791 -0.731251,0.59584 -2.058335,0.59584 -0.785417,0 -1.340625,-0.20313 -0.555209,-0.20312 -0.920834,-0.50104 -0.365625,-0.31146 -0.56875,-0.67708 -0.189583,-0.37917 -0.257292,-0.73125 l 1.570834,-0.51459 q 0.108334,0.43334 0.446875,0.75834 0.352084,0.325 1.069792,0.325 0.636459,0 0.866667,-0.18959 0.243751,-0.20312 0.243751,-0.43333 0,-0.13542 -0.06771,-0.24375 -0.05417,-0.12188 -0.216667,-0.21667 -0.1625,-0.10833 -0.446875,-0.17604 -0.270833,-0.0677 -0.690625,-0.10833 -1.1375,-0.0948 -1.814584,-0.58229 -0.663542,-0.50105 -0.663542,-1.4625 v -0.0813 q 0,-0.50105 0.216667,-0.88021 0.216667,-0.37917 0.56875,-0.63646 0.352083,-0.27084 0.8125,-0.40625 0.460417,-0.13542 0.947917,-0.13542 0.636459,0 1.096876,0.1625 0.473958,0.14896 0.798958,0.40625 0.325001,0.24375 0.528126,0.55521 0.203125,0.29792 0.311458,0.58229 l -1.543751,0.62292 q -0.121875,-0.36563 -0.419791,-0.56875 -0.297917,-0.21667 -0.771876,-0.21667 -0.433333,0 -0.65,0.1625 -0.216667,0.14896 -0.216666,0.37917 z"
           style="font-style:normal;font-variant:normal;font-weight:bold;font-stretch:normal;font-family:'Space Mono';-inkscape-font-specification:'Space Mono Bold';fill:#4400aa;fill-opacity:1;stroke-width:0.33854181"
           id="path2422"
           inkscape:connector-curvature="0" />
        <path
           d="m 102.90744,160.80743 h 2.35625 v -6.22917 h -2.275 v -1.625 h 3.98125 v 7.85417 h 2.19375 v 1.625 h -6.25625 z"
           style="font-style:normal;font-variant:normal;font-weight:bold;font-stretch:normal;font-family:'Space Mono';-inkscape-font-specification:'Space Mono Bold';fill:#4400aa;fill-opacity:1;stroke-width:0.33854181"
           id="path2424"
           inkscape:connector-curvature="0" />
        <path
           d="m 112.55088,158.18035 h 0.325 l 1.7875,-2.46459 h 1.86875 v 0.0813 l -2.16666,3.07396 v 0.24375 l 2.38333,3.23646 v 0.0813 h -1.95 l -1.92292,-2.62708 h -0.325 v 2.62708 h -1.70625 v -9.47917 h 1.70625 z"
           style="font-style:normal;font-variant:normal;font-weight:bold;font-stretch:normal;font-family:'Space Mono';-inkscape-font-specification:'Space Mono Bold';fill:#4400aa;fill-opacity:1;stroke-width:0.33854181"
           id="path2426"
           inkscape:connector-curvature="0" />
        <path
           transform="matrix(1,0,0.10099036,0.9948874,0,0)"
           style="fill:#4400aa;fill-opacity:1;stroke-width:0;stroke-miterlimit:3.9000001;stroke-dasharray:none"
           d="m 84.81688,160.2424 a 1.3645104,1.3715225 0 0 1 -1.36451,1.37152 1.3645104,1.3715225 0 0 1 -1.364511,-1.37152 1.3645104,1.3715225 0 0 1 1.364511,-1.37152 1.3645104,1.3715225 0 0 1 1.36451,1.37152 z"
           id="ellipse2428"
           inkscape:connector-curvature="0" />
      </g>
    </g>
    <g
       transform="matrix(0.23691081,0,0,0.23691081,213.03077,3.5819076)"
       style="font-style:normal;font-weight:normal;font-size:40px;line-height:1.25;font-family:sans-serif;letter-spacing:0px;word-spacing:0px;fill:#000000;fill-opacity:1;stroke:none"
       id="flowRoot2638" />
    <g
       style="font-style:normal;font-variant:normal;font-weight:bold;font-stretch:normal;font-size:3.51509285px;line-height:1.25;font-family:'Space Mono';-inkscape-font-specification:'Space Mono Bold';letter-spacing:0px;word-spacing:0px;fill:#000000;fill-opacity:1;stroke:none;stroke-width:0.08787732"
       id="text2642" />
  </g>
</svg>
