<?xml version="1.0" encoding="UTF-8" standalone="no"?>
<svg
   xmlns:dc="http://purl.org/dc/elements/1.1/"
   xmlns:cc="http://creativecommons.org/ns#"
   xmlns:rdf="http://www.w3.org/1999/02/22-rdf-syntax-ns#"
   xmlns:svg="http://www.w3.org/2000/svg"
   xmlns="http://www.w3.org/2000/svg"
   viewBox="0 0 989.33498 360"
   height="270pt"
   width="742pt"
   xml:space="preserve"
   id="svg2"
   version="1.1"><metadata
     id="metadata8"><rdf:RDF><cc:Work
         rdf:about=""><dc:format>image/svg+xml</dc:format><dc:type
           rdf:resource="http://purl.org/dc/dcmitype/StillImage" /><dc:title></dc:title></cc:Work></rdf:RDF></metadata><defs
     id="defs6" /><g
     transform="matrix(1.3333333,0,0,-1.3333333,0,360)"
     id="g10"><path
       d="m 182.31872,235.99645 c -24.09528,-9.51858 -87.722707,-55.22971 -87.722707,-102.84437 0,-32.75928 26.352567,-46.857954 58.351767,-46.857954 59.4848,0 85.84316,57.524754 85.84316,105.521154 -0.38154,34.66259 -6.02476,69.32299 -41.41209,69.32299 -21.84019,0 -31.99999,-13.328 -36.90031,-18.6656 0,-0.75509 1.13064,-0.75509 1.50679,-0.75509 7.15541,3.80743 16.19077,7.9964 24.85217,7.9964 17.31522,0 22.20695,-20.95085 22.20695,-49.51816 0,-32.76548 -11.29025,-78.47621 -52.70235,-78.47621 -15.81542,0 -31.99979,9.14522 -31.99979,27.04574 0,28.5759 30.86915,61.33218 59.10086,85.71092 0,0.38154 -0.37534,1.52018 -1.12445,1.52018 z"
       style="fill:#000000;fill-opacity:0.94117647;fill-rule:nonzero;stroke:none;stroke-width:0.19976024"
       id="path14" /><path
       d="m 14.232228,201.99126 h 24.572747 l 1.801838,17.77467 c 0.507191,4.994 2.614861,9.17698 6.328404,12.54894 3.721333,3.47982 8.076107,5.22772 13.077903,5.22772 H 95.213072 L 93.08982,216.62969 H 66.949395 c -3.136036,0 -4.883938,-1.7479 -5.235916,-5.22772 l -0.959048,-9.41071 h 33.983411 l -2.123051,-20.9131 H 58.631179 L 51.982958,115.55521 H 30.025772 l 6.656151,65.52295 H 12.108985 Z"
       style="fill:#000000;fill-opacity:1;fill-rule:nonzero;stroke:none;stroke-width:0.19976024"
       id="path16" /><path
       d="m 281.68546,177.59095 c -0.28965,-2.78746 0.95885,-4.81462 3.73751,-6.09509 2.78466,-1.1626 7.96644,-2.15361 15.55134,-2.96444 8.73951,-0.92848 15.66919,-3.59808 20.79504,-8.01458 5.14183,-4.29884 7.31922,-10.33919 6.52417,-18.12584 l -0.10188,-1.04735 c -0.87495,-8.59748 -4.70635,-15.44925 -11.50219,-20.56112 -6.78786,-5.10947 -15.87894,-7.66899 -27.26328,-7.66899 -6.73592,0 -12.39912,0.87315 -16.98761,2.61326 -4.5805,1.7479 -8.31802,3.89293 -11.19057,6.45405 -2.87055,2.6686 -5.01798,5.57132 -6.43827,8.70755 -1.29445,3.2547 -2.0835,6.39073 -2.35518,9.41131 l 20.88893,6.62325 c 0.54535,-3.72134 2.13744,-6.96744 4.76029,-9.76009 2.73871,-2.78645 7.17738,-4.18258 13.34199,-4.18258 5.45545,0 9.25489,0.81083 11.40031,2.44327 2.26329,1.73931 3.49581,3.59568 3.69956,5.5791 0.11586,1.15422 -0.0619,2.19896 -0.55333,3.13624 -0.35957,1.04474 -1.19457,1.97343 -2.505,2.78406 -1.29644,0.92928 -3.13823,1.68637 -5.51737,2.26368 -2.27128,0.5853 -5.18179,1.04634 -8.74751,1.39592 -9.67638,0.81323 -17.20535,3.31023 -22.59088,7.49101 -5.25769,4.30124 -7.46704,10.57331 -6.63204,18.82201 l 0.10987,1.04635 c 0.43747,4.29884 1.7479,8.0763 3.93927,11.3302 2.18538,3.25469 4.90212,5.97722 8.14822,8.18477 3.25409,2.32521 6.91969,4.06453 10.98681,5.22733 4.06512,1.165 8.19217,1.7479 12.37515,1.7479 5.46144,0 10.09788,-0.70076 13.90531,-2.08889 3.93328,-1.28046 7.18538,-3.02837 9.7463,-5.22972 2.57491,-2.0897 4.60248,-4.47903 6.07072,-7.14763 1.48222,-2.55952 2.56691,-5.05653 3.25409,-7.491 l -20.68717,-8.02098 c -0.72513,3.13704 -2.27727,5.57931 -4.65841,7.31942 -2.36316,1.86416 -5.5793,2.79285 -9.64442,2.79285 -3.72154,0 -6.57811,-0.70076 -8.5837,-2.09129 -1.98162,-1.27907 -3.0823,-2.91071 -3.27607,-4.88394 z"
       style="fill:#000000;fill-opacity:1;fill-rule:nonzero;stroke:none;stroke-width:0.19976024"
       id="path18" /><path
       d="m 383.24956,177.59095 c -0.28766,-2.78746 0.96085,-4.81462 3.73152,-6.09509 2.79265,-1.1626 7.97443,-2.15361 15.55933,-2.96444 8.73951,-0.92848 15.66719,-3.59808 20.79504,-8.01458 5.14183,-4.29884 7.31921,-10.33919 6.52217,-18.12584 l -0.0999,-1.04735 c -0.87495,-8.59748 -4.70635,-15.44925 -11.5022,-20.56112 -6.78985,-5.10947 -15.87894,-7.66899 -27.26527,-7.66899 -6.74191,0 -12.39912,0.87315 -16.98761,2.61326 -4.5865,1.7479 -8.31802,3.89293 -11.19656,6.45405 -2.86457,2.6686 -5.00999,5.57132 -6.43029,8.70755 -1.29444,3.2547 -2.0835,6.39073 -2.35517,9.41131 l 20.88893,6.62325 c 0.54534,-3.72134 2.13743,-6.96744 4.75829,-9.76009 2.73272,-2.78645 7.17938,-4.18258 13.33599,-4.18258 5.46344,0 9.26288,0.81083 11.40032,2.44327 2.27127,1.73931 3.50379,3.59568 3.70755,5.5791 0.11586,1.15422 -0.0719,2.19896 -0.55533,3.13624 -0.35758,1.04474 -1.19257,1.97343 -2.505,2.78406 -1.30243,0.92928 -3.13623,1.68637 -5.51538,2.26368 -2.27127,0.5853 -5.18178,1.04634 -8.7475,1.39592 -9.67639,0.81323 -17.20735,3.31023 -22.59088,7.49101 -5.25969,4.30124 -7.46704,10.57331 -6.63204,18.82201 l 0.10986,1.04635 c 0.43548,4.29884 1.74791,8.0763 3.93928,11.3302 2.18537,3.25469 4.90011,5.97722 8.14622,8.18477 3.25409,2.32521 6.92169,4.06453 10.98681,5.22733 4.06712,1.165 8.19417,1.7479 12.37715,1.7479 5.46144,0 10.09588,-0.70076 13.90531,-2.08889 3.93128,-1.28046 7.18537,-3.02837 9.7463,-5.22972 2.57491,-2.0897 4.60247,-4.47903 6.07071,-7.14763 1.48222,-2.55952 2.56692,-5.05653 3.24611,-7.491 l -20.67918,-8.02098 c -0.72513,3.13704 -2.27927,5.57931 -4.65841,7.31942 -2.36516,1.86416 -5.57931,2.79285 -9.65242,2.79285 -3.71354,0 -6.57011,-0.70076 -8.57571,-2.09129 -1.98961,-1.27907 -3.0823,-2.91071 -3.27806,-4.88394 z"
       style="fill:#000000;fill-opacity:1;fill-rule:nonzero;stroke:none;stroke-width:0.19976024"
       id="path20" /><path
       d="m 519.07254,136.46751 h 30.32161 l 8.13823,80.16218 h -29.27686 l 2.12345,20.9129 h 51.23451 L 571.35179,136.46751 h 28.23212 l -2.12146,-20.9123 h -80.51336 z"
       style="fill:#000000;fill-opacity:1;fill-rule:nonzero;stroke:none;stroke-width:0.19976024"
       id="path22" /><path
       d="m 646.59748,170.27153 h 4.18298 l 26.22652,31.71973 h 24.04914 l -0.10987,-1.04634 -31.89772,-39.56112 -0.31362,-3.13763 26.43827,-41.64462 -0.10188,-1.04634 H 669.97742 L 648.659,149.35843 h -4.18297 l -3.42589,-33.80322 h -21.95765 l 12.38314,121.98738 h 21.94965 z"
       style="fill:#000000;fill-opacity:1;fill-rule:nonzero;stroke:none;stroke-width:0.19976024"
       id="path24" /><path
       d="m 496.33383,154.28292 c 0,-9.69856 -7.86656,-17.55712 -17.55693,-17.55712 -9.70035,0 -17.56491,7.85856 -17.56491,17.55712 0,9.69776 7.86456,17.55633 17.56491,17.55633 9.69037,0 17.55693,-7.85857 17.55693,-17.55633 z"
       style="fill:#000000;fill-opacity:1;fill-rule:nonzero;stroke:none;stroke-width:0.19976024"
       id="path26" /><path
       d="m 326.10015,74.673673 h 13.47583 v -3.79065 h -9.50459 v -4.814622 h 9.3248 v -3.785256 h -9.3248 V 53.62174 h -3.97124 z"
       style="fill:#000000;fill-opacity:0.94117647;fill-rule:nonzero;stroke:none;stroke-width:0.19976024"
       id="path28" /><path
       d="m 343.46131,68.533443 h 6.31443 v -2.161406 h 0.54534 c 0.28166,0.819217 0.7491,1.452057 1.41231,1.895325 0.67918,0.462046 1.49021,0.687575 2.43507,0.687575 1.48222,0 2.67679,-0.467439 3.5817,-1.412505 0.89693,-0.920695 1.34839,-2.333 1.34839,-4.237114 v -0.662405 l -3.90931,-0.359768 v 0.421294 c 0,0.818617 -0.20975,1.476428 -0.63124,1.951657 -0.4215,0.507192 -1.05274,0.756892 -1.89573,0.756892 -0.835,0 -1.4982,-0.297243 -1.98162,-0.87475 -0.48542,-0.585298 -0.71914,-1.412305 -0.71914,-2.497003 v -4.814422 h 3.42589 V 53.62174 h -10.28366 v 3.605073 h 3.06632 v 7.703155 h -2.70875 z"
       style="fill:#000000;fill-opacity:0.94117647;fill-rule:nonzero;stroke:none;stroke-width:0.19976024"
       id="path30" /><path
       d="m 365.90438,59.850065 c 0.022,-0.445465 0.12385,-0.851179 0.30363,-1.234319 0.20376,-0.36596 0.46145,-0.685976 0.78107,-0.966839 0.34358,-0.25829 0.72513,-0.468238 1.14662,-0.631243 0.43747,-0.142029 0.89692,-0.212345 1.38034,-0.212345 0.94487,0 1.66201,0.164003 2.16141,0.48382 0.50739,0.343387 0.86696,0.740511 1.0847,1.202556 l 3.2461,-1.801837 c -0.17779,-0.383939 -0.42948,-0.781063 -0.7491,-1.202357 -0.31962,-0.398122 -0.74111,-0.773472 -1.26248,-1.11666 -0.49941,-0.336396 -1.12466,-0.615661 -1.86577,-0.84119 -0.71713,-0.220136 -1.5761,-0.330204 -2.55093,-0.330204 -1.12465,0 -2.14743,0.180384 -3.07431,0.540152 -0.9209,0.367359 -1.72593,0.880943 -2.40512,1.567518 -0.6632,0.679785 -1.17659,1.514583 -1.56012,2.497003 -0.36557,0.98322 -0.54535,2.092089 -0.54535,3.332001 v 0.187975 c 0,1.138633 0.19377,2.185776 0.57731,3.120454 0.39752,0.945066 0.93687,1.747902 1.62205,2.411306 0.67918,0.657012 1.47623,1.170395 2.37315,1.530164 0.9209,0.380743 1.90372,0.568917 2.94846,0.568917 1.28047,0 2.38914,-0.225529 3.31003,-0.687575 0.92089,-0.443268 1.68398,-1.011985 2.28526,-1.71594 0.60128,-0.678786 1.03875,-1.443468 1.31841,-2.284658 0.28167,-0.821015 0.4215,-1.623851 0.4215,-2.404914 v -2.011785 z m 3.5817,5.679183 c -0.96085,0 -1.7479,-0.2497 -2.34918,-0.7491 -0.60128,-0.48382 -0.99081,-1.044746 -1.1706,-1.683979 h 7.03756 c -0.12385,0.700759 -0.4994,1.278266 -1.14663,1.739312 -0.61526,0.467439 -1.4123,0.693767 -2.37115,0.693767 z"
       style="fill:#000000;fill-opacity:0.94117647;fill-rule:nonzero;stroke:none;stroke-width:0.19976024"
       id="path32" /><path
       d="m 384.28831,59.850065 c 0.024,-0.445465 0.12385,-0.851179 0.30364,-1.234319 0.20375,-0.36596 0.46144,-0.685976 0.78106,-0.966839 0.34359,-0.25829 0.72513,-0.468238 1.13863,-0.631243 0.44547,-0.142029 0.90492,-0.212345 1.38834,-0.212345 0.94486,0 1.662,0.164003 2.1614,0.48382 0.4994,0.343387 0.86696,0.740511 1.0847,1.202556 l 3.24611,-1.801837 c -0.17779,-0.383939 -0.42749,-0.781063 -0.74911,-1.202357 -0.31961,-0.398122 -0.74111,-0.773472 -1.26248,-1.11666 -0.4994,-0.336396 -1.12465,-0.615661 -1.86576,-0.84119 -0.71714,-0.220136 -1.57611,-0.330204 -2.55893,-0.330204 -1.11666,0 -2.13743,0.180384 -3.06632,0.540152 -0.92089,0.367359 -1.72593,0.880943 -2.40311,1.567518 -0.66321,0.679785 -1.18658,1.514583 -1.56213,2.497003 -0.36556,0.98322 -0.54535,2.092089 -0.54535,3.332001 v 0.187975 c 0,1.138633 0.19377,2.185776 0.57731,3.120454 0.39752,0.945066 0.93688,1.747902 1.62205,2.411306 0.67919,0.657012 1.46824,1.170395 2.37316,1.530164 0.92089,0.380743 1.90371,0.568917 2.94846,0.568917 1.28046,0 2.38913,-0.225529 3.31002,-0.687575 0.9209,-0.443268 1.68398,-1.011985 2.28526,-1.71594 0.60128,-0.678786 1.03876,-1.443468 1.31842,-2.284658 0.28166,-0.821015 0.42149,-1.623851 0.42149,-2.404914 v -2.011785 z m 3.5817,5.679183 c -0.96084,0 -1.7479,-0.2497 -2.34918,-0.7491 -0.60128,-0.48382 -0.99081,-1.044746 -1.17059,-1.683979 h 7.03955 c -0.12585,0.700759 -0.4994,1.278266 -1.14862,1.739312 -0.61526,0.467439 -1.41231,0.693767 -2.37116,0.693767 z"
       style="fill:#000000;fill-opacity:0.94117647;fill-rule:nonzero;stroke:none;stroke-width:0.19976024"
       id="path34" /><path
       d="m 427.36861,55.782347 c -0.39753,-0.934878 -0.95885,-1.605872 -1.67799,-2.010786 -0.72513,-0.38394 -1.56812,-0.572114 -2.52697,-0.572114 -0.90491,0 -1.75589,0.172593 -2.55893,0.515781 -0.78106,0.335597 -1.46823,0.834998 -2.0775,1.498202 -0.59928,0.663404 -1.07671,1.467838 -1.44227,2.411306 -0.3356,0.936276 -0.50739,2.013183 -0.50739,3.21554 v 0.48382 c 0,1.178385 0.17179,2.239512 0.50739,3.184577 0.34359,0.942469 0.80303,1.747903 1.38833,2.402517 0.57731,0.663204 1.2485,1.162604 2.01359,1.505992 0.78106,0.35817 1.61606,0.537755 2.497,0.537755 1.06073,0 1.9117,-0.179585 2.55094,-0.537755 0.6632,-0.358969 1.18657,-0.920695 1.56811,-1.685377 h 0.53936 v 1.801638 h 3.79145 V 58.131927 c 0,-0.601678 0.26568,-0.905114 0.81302,-0.905114 h 0.56932 V 53.62174 h -2.5829 c -0.68718,0 -1.2485,0.203556 -1.68598,0.600879 -0.42149,0.397923 -0.63124,0.920695 -0.63124,1.559728 z m -3.36197,1.022972 c 1.09868,0 1.98162,0.367559 2.64483,1.084698 0.6632,0.741311 0.99081,1.747902 0.99081,3.012784 v 0.359769 c 0,1.261685 -0.32761,2.255093 -0.99081,2.972232 -0.66321,0.74131 -1.54615,1.114263 -2.64483,1.114263 -1.10068,0 -1.98362,-0.372953 -2.64682,-1.114263 -0.66321,-0.717139 -0.99081,-1.710547 -0.99081,-2.972232 v -0.359769 c 0,-1.264882 0.3276,-2.271473 0.99081,-3.012784 0.6632,-0.717139 1.54614,-1.084698 2.64682,-1.084698 z"
       style="fill:#000000;fill-opacity:0.94117647;fill-rule:nonzero;stroke:none;stroke-width:0.19976024"
       id="path36" /><path
       d="m 439.89357,53.62174 h -3.79344 v 14.911703 h 3.79344 v -2.223132 h 0.53736 c 0.34359,0.842788 0.89892,1.498202 1.65401,1.957051 0.76508,0.462046 1.65602,0.687575 2.67679,0.687575 0.72713,0 1.39832,-0.115661 2.01358,-0.359768 0.64723,-0.217739 1.21055,-0.568918 1.68598,-1.052737 0.48342,-0.475229 0.85098,-1.092489 1.11466,-1.833599 0.28166,-0.74131 0.4215,-1.622453 0.4215,-2.644626 V 53.62174 H 446.206 v 8.481221 c 0,1.062724 -0.25769,1.897722 -0.78107,2.497003 -0.4994,0.617259 -1.23252,0.929284 -2.19137,0.929284 -1.12465,0 -1.96763,-0.381542 -2.52896,-1.138433 -0.53736,-0.74131 -0.81103,-1.747902 -0.81103,-3.012784 z"
       style="fill:#000000;fill-opacity:0.94117647;fill-rule:nonzero;stroke:none;stroke-width:0.19976024"
       id="path38" /><path
       d="m 465.19121,55.782347 h -0.53935 c -0.16381,-0.335597 -0.35757,-0.670995 -0.59928,-0.990211 -0.21974,-0.295646 -0.52338,-0.569517 -0.90692,-0.811427 -0.35757,-0.24111 -0.80303,-0.429284 -1.31841,-0.568917 -0.50739,-0.139632 -1.11466,-0.212345 -1.8338,-0.212345 -0.92889,0 -1.78586,0.164003 -2.59089,0.485418 -0.77907,0.336396 -1.47423,0.827207 -2.07551,1.474829 -0.57731,0.654615 -1.03676,1.45845 -1.38034,2.402517 -0.31962,0.945066 -0.48342,2.021773 -0.48342,3.246104 v 0.539952 c 0,1.20795 0.17179,2.277067 0.51538,3.221933 0.35757,0.945065 0.84099,1.731521 1.44227,2.371353 0.61726,0.663404 1.33439,1.162805 2.13144,1.505993 0.82701,0.343388 1.68398,0.507391 2.59089,0.507391 1.20056,0 2.15341,-0.225529 2.85457,-0.687575 0.70316,-0.443268 1.2485,-1.076108 1.65402,-1.895325 h 0.53935 v 8.301636 h 3.79145 V 53.62174 h -3.79145 z m -3.96324,1.022972 c 1.17658,0 2.12944,0.37535 2.85457,1.11666 0.74111,0.765481 1.10867,1.755693 1.10867,2.980822 v 0.359769 c 0,1.22433 -0.36756,2.19896 -1.10867,2.948061 -0.72513,0.756892 -1.67799,1.138434 -2.85457,1.138434 -1.18658,0 -2.14743,-0.372953 -2.88854,-1.114263 -0.72513,-0.717139 -1.08469,-1.710547 -1.08469,-2.972232 v -0.359769 c 0,-1.264882 0.35956,-2.271473 1.08469,-3.012784 0.74111,-0.717139 1.70196,-1.084698 2.88854,-1.084698 z"
       style="fill:#000000;fill-opacity:0.94117647;fill-rule:nonzero;stroke:none;stroke-width:0.19976024"
       id="path40" /><path
       d="m 490.357,66.489895 c 0,2.731122 0.67719,4.846384 2.04355,6.350179 1.38035,1.498202 3.28606,2.255892 5.71115,2.255892 2.42708,0 4.32281,-0.75769 5.68118,-2.255892 1.38234,-1.503795 2.07551,-3.619057 2.07551,-6.350179 v -4.69057 c 0,-2.800439 -0.69317,-4.94007 -2.07551,-6.406311 -1.35837,-1.458449 -3.2541,-2.193567 -5.68118,-2.193567 -2.42509,0 -4.3308,0.735118 -5.71115,2.193567 -1.36636,1.466241 -2.04355,3.605872 -2.04355,6.406311 z m 7.7547,-9.684576 c 0.71913,0 1.31841,0.117859 1.80383,0.335597 0.48342,0.24191 0.87295,0.569517 1.1706,0.991011 0.30363,0.421294 0.51338,0.920695 0.63124,1.505992 0.12585,0.577507 0.17978,1.21654 0.17978,1.919497 v 5.174389 c 0,0.663204 -0.0699,1.285857 -0.21174,1.863364 -0.13983,0.585097 -0.35757,1.084498 -0.65522,1.506791 -0.30363,0.421294 -0.69316,0.749101 -1.17858,0.990212 -0.47543,0.25829 -1.06073,0.391729 -1.73991,0.391729 -0.68518,0 -1.26249,-0.133439 -1.7479,-0.391729 -0.47543,-0.241111 -0.86497,-0.568918 -1.1706,-0.990212 -0.30364,-0.422293 -0.52137,-0.921694 -0.6632,-1.506791 -0.13984,-0.577507 -0.20975,-1.20016 -0.20975,-1.863364 v -5.174389 c 0,-0.702957 0.0619,-1.34199 0.17978,-1.919497 0.12385,-0.585297 0.3356,-1.084698 0.63124,-1.505992 0.30364,-0.421494 0.69517,-0.749101 1.17859,-0.991011 0.47543,-0.217738 1.07671,-0.335597 1.80184,-0.335597 z"
       style="fill:#000000;fill-opacity:0.94117647;fill-rule:nonzero;stroke:none;stroke-width:0.19976024"
       id="path42" /><path
       d="m 512.64226,47.60616 h -3.78546 v 20.927283 h 3.78546 v -2.161406 h 0.54534 c 0.39753,0.819217 0.98282,1.452057 1.73991,1.895325 0.76509,0.462046 1.73992,0.687575 2.9185,0.687575 0.88294,0 1.71794,-0.164003 2.497,-0.507391 0.80504,-0.343188 1.49022,-0.842589 2.07551,-1.505993 0.60128,-0.639832 1.06872,-1.426288 1.41231,-2.371353 0.35957,-0.944866 0.53935,-2.013983 0.53935,-3.221933 v -0.539952 c 0,-1.224331 -0.1638,-2.301038 -0.50739,-3.246104 -0.34359,-0.944067 -0.80304,-1.747902 -1.38034,-2.402517 -0.5853,-0.647622 -1.27248,-1.138433 -2.07751,-1.474829 -0.77906,-0.321415 -1.63803,-0.485418 -2.55893,-0.485418 -0.67918,0 -1.27047,0.07271 -1.76987,0.212345 -0.4994,0.139633 -0.94487,0.327807 -1.32841,0.568917 -0.35757,0.24191 -0.6692,0.515781 -0.92689,0.811427 -0.24171,0.319216 -0.45345,0.654614 -0.63324,0.990211 h -0.54534 z m 3.97123,9.199159 c 1.18658,0 2.13744,0.367559 2.85657,1.084698 0.74111,0.741311 1.11466,1.747902 1.11466,3.012784 v 0.359769 c 0,1.261685 -0.37355,2.255093 -1.11466,2.972232 -0.71913,0.74131 -1.66999,1.114263 -2.85657,1.114263 -1.17858,0 -2.14542,-0.381542 -2.88653,-1.138434 -0.71914,-0.749101 -1.0847,-1.723731 -1.0847,-2.948061 v -0.359769 c 0,-1.225129 0.36556,-2.215341 1.0847,-2.980822 0.74111,-0.74131 1.70795,-1.11666 2.88653,-1.11666 z"
       style="fill:#000000;fill-opacity:0.94117647;fill-rule:nonzero;stroke:none;stroke-width:0.19976024"
       id="path44" /><path
       d="m 531.36179,59.850065 c 0.016,-0.445465 0.11586,-0.851179 0.29564,-1.234319 0.20376,-0.36596 0.46145,-0.685976 0.78906,-0.966839 0.33559,-0.25829 0.71714,-0.468238 1.13863,-0.631243 0.44547,-0.142029 0.90491,-0.212345 1.38234,-0.212345 0.94287,0 1.67,0.164003 2.1694,0.48382 0.4994,0.343387 0.85697,0.740511 1.07671,1.202556 l 3.25209,-1.801837 c -0.17778,-0.383939 -0.43548,-0.781063 -0.75509,-1.202357 -0.32162,-0.398122 -0.74311,-0.773472 -1.26448,-1.11666 -0.4994,-0.336396 -1.11666,-0.615661 -1.85777,-0.84119 -0.72513,-0.220136 -1.57611,-0.330204 -2.55893,-0.330204 -1.12465,0 -2.14543,0.180384 -3.06632,0.540152 -0.9209,0.367359 -1.72593,0.880943 -2.40312,1.567518 -0.6652,0.679785 -1.18657,1.514583 -1.57011,2.497003 -0.35757,0.98322 -0.53736,2.092089 -0.53736,3.332001 v 0.187975 c 0,1.138633 0.18778,2.185776 0.56932,3.120454 0.39752,0.945066 0.94486,1.747902 1.62405,2.411306 0.68518,0.657012 1.47423,1.170395 2.37914,1.530164 0.9209,0.380743 1.90372,0.568917 2.94247,0.568917 1.28646,0 2.38714,-0.225529 3.30803,-0.687575 0.9209,-0.443268 1.68598,-1.011985 2.28526,-1.71594 0.60128,-0.678786 1.04674,-1.443468 1.32641,-2.284658 0.28166,-0.821015 0.42149,-1.623851 0.42149,-2.404914 v -2.011785 z m 3.57371,5.679183 c -0.96085,0 -1.73991,-0.2497 -2.34119,-0.7491 -0.60128,-0.48382 -0.99081,-1.044746 -1.1706,-1.683979 h 7.03157 c -0.11786,0.700759 -0.49941,1.278266 -1.14064,1.739312 -0.62325,0.467439 -1.4123,0.693767 -2.37914,0.693767 z"
       style="fill:#000000;fill-opacity:0.94117647;fill-rule:nonzero;stroke:none;stroke-width:0.19976024"
       id="path46" /><path
       d="m 550.19918,53.62174 h -3.79345 v 14.911703 h 3.79345 v -2.223132 h 0.53735 c 0.34359,0.842788 0.88894,1.498202 1.65402,1.957051 0.76508,0.462046 1.65401,0.687575 2.67679,0.687575 0.71714,0 1.38833,-0.115661 2.01358,-0.359768 0.63923,-0.217739 1.20056,-0.568918 1.68598,-1.052737 0.48342,-0.475229 0.84898,-1.092489 1.11466,-1.833599 0.27367,-0.74131 0.4135,-1.622453 0.4135,-2.644626 V 53.62174 h -3.78346 v 8.481221 c 0,1.062724 -0.26568,1.897722 -0.78106,2.497003 -0.50739,0.617259 -1.23252,0.929284 -2.19936,0.929284 -1.12465,0 -1.95965,-0.381542 -2.52097,-1.138433 -0.54735,-0.74131 -0.81103,-1.747902 -0.81103,-3.012784 z"
       style="fill:#000000;fill-opacity:0.94117647;fill-rule:nonzero;stroke:none;stroke-width:0.19976024"
       id="path48" /><path
       d="m 593.63904,68.237798 c 0,0.842588 -0.32761,1.576108 -0.99081,2.19097 -0.64123,0.625849 -1.55413,0.937275 -2.74071,0.937275 -0.9988,0 -1.79385,-0.209948 -2.37115,-0.631242 -0.5853,-0.405913 -0.87495,-0.952857 -0.87495,-1.654415 0,-0.358769 0.0719,-0.694366 0.21174,-0.990211 0.13983,-0.281662 0.38154,-0.547743 0.71714,-0.789652 0.36756,-0.217739 0.82701,-0.412705 1.39033,-0.600879 0.57731,-0.180184 1.31043,-0.351778 2.19137,-0.507192 2.20935,-0.397922 3.88734,-1.076707 5.04994,-2.011585 1.16261,-0.944866 1.7479,-2.341789 1.7479,-4.183179 v -0.359769 c 0,-0.98242 -0.17978,-1.871154 -0.53935,-2.676587 -0.34359,-0.779464 -0.84299,-1.45825 -1.50619,-2.013983 -0.66321,-0.560926 -1.46624,-0.998801 -2.40312,-1.293647 -0.94486,-0.304435 -2.00559,-0.454255 -3.19217,-0.454255 -1.38034,0 -2.60487,0.188174 -3.66759,0.572114 -1.04475,0.404914 -1.91171,0.942468 -2.61287,1.621453 -0.70315,0.702957 -1.23252,1.514583 -1.60008,2.443068 -0.35957,0.937275 -0.53735,1.95785 -0.53735,3.066719 v 0.896524 h 3.97123 v -0.717139 c 0,-1.264083 0.35957,-2.279264 1.07671,-3.036156 0.7491,-0.749101 1.88773,-1.115062 3.43388,-1.115062 1.20056,0 2.09149,0.25829 2.67679,0.779465 0.5773,0.523771 0.87295,1.146424 0.87295,1.865761 0,0.343387 -0.0619,0.663403 -0.18778,0.959048 -0.11586,0.319217 -0.3276,0.600879 -0.62325,0.842789 -0.30563,0.266081 -0.71914,0.49161 -1.24051,0.695166 -0.51538,0.201358 -1.17859,0.365161 -1.98362,0.507191 -1.06073,0.188174 -2.03556,0.413703 -2.9165,0.692968 -0.88294,0.305833 -1.65601,0.695365 -2.31123,1.171194 -0.64722,0.485418 -1.14662,1.084698 -1.50619,1.812026 -0.35757,0.717139 -0.53735,1.598081 -0.53735,2.644426 v 0.179384 c 0,0.857571 0.1638,1.654415 0.50739,2.371554 0.35757,0.74111 0.85098,1.388134 1.47423,1.928086 0.63923,0.539153 1.40431,0.95825 2.28725,1.264082 0.89693,0.295646 1.90372,0.451858 3.0024,0.451858 1.24251,0 2.34918,-0.186576 3.31003,-0.545545 0.95885,-0.335398 1.76388,-0.811426 2.40311,-1.412305 0.66321,-0.601678 1.15462,-1.296843 1.47423,-2.075709 0.34359,-0.781062 0.51539,-1.600279 0.51539,-2.467238 v -1.082301 h -3.97124 z"
       style="fill:#000000;fill-opacity:0.94117647;fill-rule:nonzero;stroke:none;stroke-width:0.19976024"
       id="path50" /><path
       d="m 616.17399,60.902801 c 0,-1.248501 -0.21174,-2.34958 -0.63124,-3.308629 -0.42149,-0.944066 -0.99281,-1.747902 -1.71794,-2.411106 -0.71714,-0.640631 -1.55213,-1.132241 -2.497,-1.467838 -0.92089,-0.343188 -1.88773,-0.515781 -2.9185,-0.515781 -1.02277,0 -1.9976,0.172593 -2.94047,0.515781 -0.92089,0.335597 -1.7479,0.827207 -2.46704,1.467838 -0.72513,0.663204 -1.29444,1.46704 -1.71594,2.411106 -0.42149,0.959049 -0.63324,2.060128 -0.63324,3.308629 v 0.359769 c 0,1.22433 0.21175,2.301038 0.63324,3.246103 0.4215,0.95825 0.99081,1.769676 1.71594,2.43288 0.71914,0.663404 1.54615,1.162805 2.46704,1.505993 0.94287,0.343388 1.9177,0.507391 2.94047,0.507391 1.03077,0 1.99761,-0.164003 2.9185,-0.507391 0.94487,-0.343188 1.77986,-0.842589 2.497,-1.505993 0.72513,-0.663204 1.29645,-1.47463 1.71794,-2.43288 0.4195,-0.945065 0.63124,-2.021773 0.63124,-3.246103 z m -7.76468,-4.097482 c 0.54735,0 1.05474,0.09449 1.53816,0.273872 0.48342,0.179584 0.90491,0.445665 1.26448,0.778865 0.35757,0.343987 0.63923,0.75769 0.84099,1.234318 0.21974,0.507991 0.32761,1.069117 0.32761,1.683979 v 0.601678 c 0,0.62505 -0.10787,1.178186 -0.32761,1.654214 -0.20176,0.499401 -0.48342,0.920695 -0.84099,1.264083 -0.35957,0.344187 -0.78106,0.601678 -1.26448,0.781063 -0.48342,0.180383 -0.99081,0.271674 -1.53816,0.271674 -0.53735,0 -1.04474,-0.09129 -1.52816,-0.271674 -0.48542,-0.179385 -0.90691,-0.436876 -1.26448,-0.781063 -0.35957,-0.343388 -0.64723,-0.764682 -0.87495,-1.264083 -0.19377,-0.476028 -0.29565,-1.029164 -0.29565,-1.654214 v -0.601678 c 0,-0.614862 0.10188,-1.175988 0.29565,-1.683979 0.22772,-0.476628 0.51538,-0.890331 0.87495,-1.234318 0.35757,-0.3332 0.77906,-0.599281 1.26448,-0.778865 0.48342,-0.179385 0.99081,-0.273872 1.52816,-0.273872 z"
       style="fill:#000000;fill-opacity:0.94117647;fill-rule:nonzero;stroke:none;stroke-width:0.19976024"
       id="path52" /><path
       d="m 630.04734,68.533443 h 3.78546 V 53.62174 h -3.78546 v 2.160607 H 629.502 c -0.66321,-1.723731 -2.0835,-2.5829 -4.26888,-2.5829 -0.74111,0 -1.43627,0.117859 -2.07551,0.359768 -0.63923,0.24191 -1.20255,0.61726 -1.68597,1.11666 -0.47543,0.499401 -0.85698,1.122852 -1.13864,1.864163 -0.26568,0.756891 -0.38953,1.653415 -0.38953,2.676587 v 9.316818 h 3.78346 v -8.535755 c 0,-1.060527 0.2497,-1.895525 0.75709,-2.497003 0.4994,-0.577507 1.2485,-0.87475 2.25529,-0.87475 1.13864,0 1.97363,0.367558 2.49701,1.084498 0.53735,0.74131 0.81102,1.747902 0.81102,3.004394 z"
       style="fill:#000000;fill-opacity:0.94117647;fill-rule:nonzero;stroke:none;stroke-width:0.19976024"
       id="path54" /><path
       d="m 637.60028,68.533443 h 6.32241 v -2.161406 h 0.53735 c 0.28167,0.819217 0.74911,1.452057 1.41231,1.895325 0.67918,0.462046 1.49021,0.687575 2.43508,0.687575 1.48222,0 2.67678,-0.467439 3.5817,-1.412505 0.89692,-0.920695 1.35038,-2.333 1.35038,-4.237114 v -0.662405 l -3.90931,-0.359768 v 0.421294 c 0,0.818617 -0.21175,1.476428 -0.63324,1.951657 -0.4215,0.507192 -1.05274,0.756892 -1.89573,0.756892 -0.83499,0 -1.4982,-0.297243 -1.98162,-0.87475 -0.48342,-0.585298 -0.71913,-1.412305 -0.71913,-2.497003 v -4.814422 h 3.42588 V 53.62174 h -10.28365 v 3.605073 h 3.06632 v 7.703155 h -2.70875 z"
       style="fill:#000000;fill-opacity:0.94117647;fill-rule:nonzero;stroke:none;stroke-width:0.19976024"
       id="path56" /><path
       d="m 671.26387,59.092374 c -0.34358,-1.763483 -1.15461,-3.183579 -2.43507,-4.268277 -1.26449,-1.084498 -2.95646,-1.62465 -5.0879,-1.62465 -1.09868,0 -2.12944,0.172593 -3.09628,0.515781 -0.93688,0.335597 -1.76388,0.827207 -2.46704,1.467838 -0.69317,0.647623 -1.2485,1.435078 -1.64602,2.379145 -0.40552,0.945066 -0.60927,2.013983 -0.60927,3.214142 v 0.359768 c 0,1.210947 0.20375,2.287055 0.60927,3.254694 0.39752,0.95825 0.95285,1.779065 1.64602,2.465041 0.72713,0.678786 1.56013,1.202357 2.497,1.561326 0.96884,0.35817 1.98962,0.537755 3.06632,0.537755 2.09149,0 3.76948,-0.537755 5.05793,-1.622453 1.30244,-1.075908 2.12146,-2.504793 2.46504,-4.268277 l -3.72952,-0.961246 c -0.11786,0.88334 -0.4994,1.640231 -1.13863,2.287854 -0.64922,0.639033 -1.54615,0.95825 -2.70875,0.95825 -0.54535,0 -1.05274,-0.09988 -1.53616,-0.303636 -0.47743,-0.195765 -0.89892,-0.49161 -1.26448,-0.864562 -0.35957,-0.367559 -0.64922,-0.813024 -0.86696,-1.35857 -0.20176,-0.523571 -0.30364,-1.108669 -0.30364,-1.772073 V 60.87084 c 0,-0.663404 0.10188,-1.256292 0.30364,-1.778466 0.21774,-0.4994 0.50739,-0.920695 0.86696,-1.256292 0.36556,-0.343188 0.78705,-0.609269 1.26448,-0.788853 0.48342,-0.156013 0.99081,-0.24191 1.53616,-0.24191 1.1626,0 2.04354,0.298043 2.64482,0.87475 0.62525,0.586097 1.02278,1.364762 1.20256,2.347183 z"
       style="fill:#000000;fill-opacity:0.94117647;fill-rule:nonzero;stroke:none;stroke-width:0.19976024"
       id="path58" /><path
       d="m 678.42728,59.850065 c 0.024,-0.445465 0.12385,-0.851179 0.30363,-1.234319 0.20376,-0.36596 0.46145,-0.685976 0.78106,-0.966839 0.34359,-0.25829 0.72513,-0.468238 1.14663,-0.631243 0.43747,-0.142029 0.89692,-0.212345 1.38234,-0.212345 0.94287,0 1.662,0.164003 2.1614,0.48382 0.5054,0.343387 0.86497,0.740511 1.0847,1.202556 l 3.24611,-1.801837 c -0.17979,-0.383939 -0.42949,-0.781063 -0.7491,-1.202357 -0.32162,-0.398122 -0.74311,-0.773472 -1.26449,-1.11666 -0.4994,-0.336396 -1.12465,-0.615661 -1.86576,-0.84119 -0.71714,-0.220136 -1.57611,-0.330204 -2.55094,-0.330204 -1.12465,0 -2.14542,0.180384 -3.07431,0.540152 -0.92089,0.367359 -1.72592,0.880943 -2.40311,1.567518 -0.66321,0.679785 -1.17859,1.514583 -1.56213,2.497003 -0.36556,0.98322 -0.54534,2.092089 -0.54534,3.332001 v 0.187975 c 0,1.138633 0.19576,2.185776 0.5773,3.120454 0.39753,0.945066 0.93688,1.747902 1.62206,2.411306 0.67918,0.657012 1.47623,1.170395 2.37315,1.530164 0.92089,0.380743 1.90371,0.568917 2.95046,0.568917 1.27846,0 2.38713,-0.225529 3.30803,-0.687575 0.92089,-0.443268 1.68597,-1.011985 2.28526,-1.71594 0.60127,-0.678786 1.03875,-1.443468 1.32041,-2.284658 0.27966,-0.821015 0.4195,-1.623851 0.4195,-2.404914 v -2.011785 z m 3.5817,5.679183 c -0.96085,0 -1.74791,-0.2497 -2.34918,-0.7491 -0.60128,-0.48382 -0.99081,-1.044746 -1.1706,-1.683979 h 7.03955 c -0.12585,0.700759 -0.4994,1.278266 -1.14862,1.739312 -0.61526,0.467439 -1.4123,0.693767 -2.37115,0.693767 z"
       style="fill:#000000;fill-opacity:0.94117647;fill-rule:nonzero;stroke:none;stroke-width:0.19976024"
       id="path60" /><path
       d="m 137.20887,27.348475 c 0,0.866959 -0.3356,1.61606 -1.01279,2.255892 -0.6634,0.639033 -1.59968,0.95825 -2.81082,0.95825 -1.02837,0 -1.84159,-0.217739 -2.44087,-0.654615 -0.59289,-0.405713 -0.89893,-0.97463 -0.89893,-1.692568 0,-0.37535 0.0797,-0.710747 0.21934,-1.022173 0.14822,-0.289453 0.39013,-0.553336 0.74131,-0.803036 0.37375,-0.227727 0.84359,-0.429884 1.4201,-0.61714 0.60168,-0.188054 1.35078,-0.359728 2.25589,-0.523591 2.26308,-0.413564 3.9952,-1.101019 5.18757,-2.067838 1.19477,-0.9668 1.78766,-2.402577 1.78766,-4.29095 v -0.37533 c 0,-1.006591 -0.17939,-1.919556 -0.55314,-2.746703 -0.35198,-0.802936 -0.86696,-1.490391 -1.54574,-2.067039 -0.67979,-0.577427 -1.4982,-1.022992 -2.46504,-1.326528 -0.96924,-0.312125 -2.06013,-0.467419 -3.27807,-0.467419 -1.42109,0 -2.67739,0.201319 -3.76988,0.590691 -1.06891,0.40811 -1.95765,0.969157 -2.68258,1.662085 -0.71953,0.727247 -1.26488,1.562185 -1.63244,2.505573 -0.37295,0.968378 -0.56112,2.013204 -0.56112,3.146224 v 0.926228 h 4.0811 v -0.740511 c 0,-1.294546 0.36756,-2.33314 1.10887,-3.112664 0.76468,-0.764702 1.93348,-1.146284 3.51758,-1.146284 1.23451,0 2.15521,0.263743 2.7467,0.802936 0.60168,0.536856 0.89892,1.170475 0.89892,1.911765 0,0.351159 -0.0639,0.678886 -0.18797,0.991011 -0.12565,0.326947 -0.3356,0.617219 -0.64703,0.866919 -0.30583,0.262965 -0.72712,0.499401 -1.26488,0.70853 -0.53915,0.203656 -1.21794,0.381582 -2.03735,0.523592 -1.09249,0.188054 -2.09129,0.421374 -2.99641,0.709308 -0.90431,0.313684 -1.69956,0.710867 -2.37914,1.202457 -0.65462,0.499401 -1.1704,1.114283 -1.54575,1.85793 -0.36596,0.74135 -0.55333,1.645665 -0.55333,2.714782 v 0.187175 c 0,0.880943 0.17958,1.692568 0.53136,2.433879 0.36536,0.764682 0.87255,1.420095 1.50599,1.983419 0.66341,0.553336 1.44207,0.982421 2.34719,1.294646 0.92868,0.303436 1.95944,0.45885 3.09009,0.45885 1.27267,0 2.40331,-0.185777 3.39592,-0.553336 0.99101,-0.351179 1.81043,-0.834798 2.47283,-1.44986 0.67959,-0.61706 1.17899,-1.326408 1.51458,-2.131642 0.34339,-0.803036 0.52138,-1.645824 0.52138,-2.535357 v -1.10807 h -4.0811 z"
       style="fill:#000000;fill-opacity:0.94117647;fill-rule:nonzero;stroke:none;stroke-width:0.19976024"
       id="path62" /><path
       d="m 160.35289,19.81226 c 0,-1.272693 -0.21774,-2.405693 -0.65462,-3.395924 -0.42988,-0.9668 -1.01518,-1.786136 -1.75649,-2.465002 -0.74051,-0.663264 -1.59968,-1.162664 -2.56652,-1.514602 -0.94486,-0.351917 -1.94366,-0.523571 -2.98861,-0.523571 -1.05254,0 -2.05913,0.171654 -3.02837,0.523571 -0.94266,0.351938 -1.79384,0.851338 -2.53515,1.514602 -0.74051,0.678866 -1.32661,1.498202 -1.7557,2.465002 -0.43787,0.990231 -0.64702,2.123231 -0.64702,3.395924 v 0.372992 c 0,1.257091 0.20915,2.365141 0.64702,3.331941 0.42909,0.990991 1.01519,1.825928 1.7557,2.505673 0.74131,0.678785 1.59249,1.193767 2.53515,1.543347 0.96924,0.351978 1.97583,0.523572 3.02837,0.523572 1.04495,0 2.04375,-0.171594 2.98861,-0.523572 0.96684,-0.34958 1.82601,-0.864562 2.56652,-1.543347 0.74131,-0.679745 1.32661,-1.514682 1.75649,-2.505673 0.43688,-0.9668 0.65462,-2.07485 0.65462,-3.331941 z m -7.96624,-4.19964 c 0.55334,0 1.07691,0.09441 1.56852,0.281682 0.4994,0.185717 0.92848,0.451818 1.30383,0.803736 0.36596,0.351138 0.65542,0.772512 0.85677,1.264102 0.22633,0.515002 0.34419,1.092449 0.34419,1.732301 v 0.617219 c 0,0.639073 -0.11786,1.20012 -0.34419,1.69173 -0.20135,0.515002 -0.49081,0.952756 -0.85677,1.304674 -0.37535,0.341011 -0.80443,0.614882 -1.30383,0.802956 -0.49161,0.179465 -1.01518,0.273092 -1.56852,0.273092 -0.56093,0 -1.0845,-0.09363 -1.57611,-0.273092 -0.49161,-0.188074 -0.92868,-0.461945 -1.29464,-0.802956 -0.37535,-0.351918 -0.671,-0.789672 -0.89893,-1.304674 -0.20135,-0.49161 -0.31122,-1.052657 -0.31122,-1.69173 v -0.617219 c 0,-0.639852 0.10987,-1.217299 0.31122,-1.732301 0.22793,-0.49159 0.52358,-0.912964 0.89893,-1.264102 0.36596,-0.351918 0.80303,-0.618019 1.29464,-0.803736 0.49161,-0.187275 1.01518,-0.281682 1.57611,-0.281682 z"
       style="fill:#000000;fill-opacity:0.94117647;fill-rule:nonzero;stroke:none;stroke-width:0.19976024"
       id="path64" /><path
       d="m 164.09839,27.6607 h 4.35498 v 3.146224 c 0,0.888733 0.29564,1.630043 0.88873,2.223131 0.60168,0.615661 1.34299,0.928486 2.22553,0.928486 h 6.24251 V 30.25139 h -4.63664 c -0.55334,0 -0.835,-0.311426 -0.835,-0.928685 V 27.6607 h 6.02477 V 23.954948 H 172.3385 V 12.343105 h -3.88513 v 11.611843 h -4.35498 z"
       style="fill:#000000;fill-opacity:0.94117647;fill-rule:nonzero;stroke:none;stroke-width:0.19976024"
       id="path66" /><path
       d="m 182.66211,27.6607 h 4.54295 v 6.297841 h 3.88514 V 27.6607 h 5.53336 V 23.954948 H 191.0902 V 16.97115 c 0,-0.617239 0.28166,-0.920775 0.83499,-0.920775 h 4.13484 v -3.70727 h -6.48442 c -0.69276,0 -1.27187,0.227846 -1.72373,0.678865 -0.43687,0.453376 -0.64682,1.030803 -0.64682,1.732301 v 9.200677 h -4.54295 z"
       style="fill:#000000;fill-opacity:0.94117647;fill-rule:nonzero;stroke:none;stroke-width:0.19976024"
       id="path68" /><path
       d="M 216.98112,12.343105 H 210.247 l -0.86696,11.611843 v 1.850179 h -0.74051 v -1.850179 l -0.86536,-11.611843 h -6.72792 L 200.02567,27.6607 h 3.5815 l 0.67739,-11.610325 v -1.85793 h 0.74291 v 1.85793 l 0.77087,11.610325 h 6.42249 l 0.77308,-11.610325 v -1.85793 h 0.74111 v 1.85793 L 214.4142,27.6607 h 3.5817 z"
       style="fill:#000000;fill-opacity:0.94117647;fill-rule:nonzero;stroke:none;stroke-width:0.19976024"
       id="path70" /><path
       d="m 230.76058,14.568553 c -0.4135,-0.969136 -0.99081,-1.662065 -1.73192,-2.070175 -0.74111,-0.389372 -1.60607,-0.585217 -2.59089,-0.585217 -0.92689,0 -1.80184,0.171654 -2.62884,0.523571 -0.80304,0.351938 -1.51419,0.86694 -2.12945,1.545805 -0.61726,0.677327 -1.10867,1.498202 -1.48422,2.4658 -0.34358,0.9668 -0.52137,2.067039 -0.52137,3.30775 v 0.49159 c 0,1.218078 0.17779,2.302716 0.52137,3.269516 0.35158,0.9668 0.82701,1.796284 1.4203,2.473511 0.60128,0.678985 1.28845,1.194766 2.06752,1.545945 0.80503,0.36596 1.662,0.553136 2.56891,0.553136 1.09069,0 1.96564,-0.187176 2.62086,-0.553136 0.67918,-0.37535 1.21654,-0.952857 1.60807,-1.731522 h 0.55333 V 27.6607 h 3.89333 V 16.97115 c 0,-0.617239 0.27367,-0.920775 0.835,-0.920775 h 0.5853 v -3.70727 h -2.65282 c -0.70116,0 -1.27847,0.203655 -1.73192,0.617219 -0.42949,0.413583 -0.64722,0.944966 -0.64722,1.608229 z m -3.46384,1.044067 c 1.13863,0 2.04355,0.376109 2.72273,1.11662 0.67919,0.757691 1.01478,1.786136 1.01478,3.08302 v 0.372992 c 0,1.296884 -0.33559,2.317539 -1.01478,3.058829 -0.67918,0.756911 -1.5841,1.140031 -2.72273,1.140031 -1.13064,0 -2.03755,-0.38312 -2.71474,-1.140031 -0.67919,-0.74129 -1.01478,-1.761945 -1.01478,-3.058829 V 19.81226 c 0,-1.296884 0.33559,-2.325329 1.01478,-3.08302 0.67719,-0.740511 1.5841,-1.11662 2.71474,-1.11662 z"
       style="fill:#000000;fill-opacity:0.94117647;fill-rule:nonzero;stroke:none;stroke-width:0.19976024"
       id="path72" /><path
       d="m 238.97872,27.6607 h 6.48422 v -2.223152 h 0.56132 c 0.28965,0.842809 0.77307,1.489632 1.45226,1.942888 0.69317,0.476029 1.52817,0.709349 2.497,0.709349 1.52018,0 2.74671,-0.48302 3.67359,-1.44986 0.92889,-0.944886 1.39033,-2.397043 1.39033,-4.354853 v -0.679644 l -4.01118,-0.367539 v 0.429964 c 0,0.842728 -0.21774,1.513803 -0.64722,2.005393 -0.43748,0.515801 -1.0847,0.773292 -1.95166,0.773292 -0.85897,0 -1.54415,-0.298063 -2.03556,-0.897343 -0.49141,-0.593049 -0.74111,-1.452177 -0.74111,-2.561007 v -4.937813 h 3.51778 v -3.70727 h -10.55733 v 3.70727 h 3.15222 v 7.904573 h -2.78466 z"
       style="fill:#000000;fill-opacity:0.94117647;fill-rule:nonzero;stroke:none;stroke-width:0.19976024"
       id="path74" /><path
       d="m 262.02905,18.735432 c 0.016,-0.453356 0.11586,-0.875509 0.30364,-1.264882 0.21174,-0.375329 0.47543,-0.703076 0.80303,-0.99101 0.35158,-0.265302 0.74311,-0.485358 1.1706,-0.649221 0.46145,-0.139672 0.92888,-0.217699 1.42829,-0.217699 0.96084,0 1.70195,0.163864 2.21733,0.499401 0.51339,0.351918 0.88894,0.757691 1.11467,1.2329 l 3.332,-1.850139 c -0.18778,-0.397164 -0.44347,-0.802936 -0.77308,-1.239912 -0.3276,-0.413564 -0.75509,-0.787335 -1.29444,-1.139253 -0.51538,-0.351138 -1.15462,-0.639073 -1.91171,-0.866939 -0.74111,-0.225509 -1.61606,-0.335517 -2.62884,-0.335517 -1.14862,0 -2.20136,0.180243 -3.14623,0.555573 -0.95085,0.365181 -1.76987,0.905173 -2.47303,1.600419 -0.67918,0.700719 -1.20855,1.559848 -1.60807,2.56646 -0.36556,1.006591 -0.55333,2.153655 -0.55333,3.426347 v 0.185717 c 0,1.170475 0.19576,2.238713 0.58529,3.20787 0.41351,0.9668 0.96684,1.793947 1.67,2.472832 0.70316,0.679584 1.51418,1.202357 2.44307,1.576308 0.94287,0.389333 1.94966,0.585098 3.02637,0.585098 1.31042,0 2.44306,-0.23332 3.39392,-0.709349 0.94487,-0.453256 1.72593,-1.038553 2.34119,-1.763423 0.62525,-0.695266 1.07671,-1.482601 1.36636,-2.340931 0.28766,-0.843527 0.42949,-1.670654 0.42949,-2.473591 v -2.067059 z m 3.67559,5.834398 c -0.99281,0 -1.79584,-0.255154 -2.4111,-0.770935 -0.61726,-0.490831 -1.02278,-1.068258 -1.20256,-1.731522 h 7.22533 c -0.12385,0.72491 -0.51538,1.317938 -1.17859,1.793947 -0.63923,0.47521 -1.45026,0.70851 -2.43308,0.70851 z"
       style="fill:#000000;fill-opacity:0.94117647;fill-rule:nonzero;stroke:none;stroke-width:0.19976024"
       id="path76" /><path
       d="m 303.45533,15.61262 c 0.78106,0 1.4203,0.117819 1.91171,0.344107 0.51538,0.249701 0.90491,0.561047 1.17059,0.959009 0.28965,0.407331 0.48342,0.87473 0.5853,1.389752 0.10987,0.529824 0.15581,1.076828 0.15581,1.630064 v 0.561825 h 4.0811 v -0.561825 c 0,-2.56644 -0.68717,-4.556252 -2.04354,-5.953015 -1.3344,-1.381922 -3.29405,-2.069376 -5.86097,-2.069376 -2.47303,0 -4.43268,0.749101 -5.86696,2.247302 -1.44426,1.506772 -2.1614,3.69946 -2.1614,6.578025 v 4.816879 c 0,1.380403 0.17778,2.620315 0.55333,3.705013 0.36556,1.11646 0.90492,2.038154 1.60807,2.778665 0.69317,0.765481 1.54415,1.342788 2.52697,1.732321 0.99081,0.413503 2.09948,0.614862 3.33999,0.614862 1.27247,0 2.40312,-0.185777 3.39393,-0.553336 0.98282,-0.373752 1.80983,-0.904315 2.46704,-1.60827 0.67718,-0.692769 1.18458,-1.543348 1.51218,-2.526568 0.35158,-0.99101 0.53136,-2.099879 0.53136,-3.339791 v -0.553136 h -4.0811 v 0.553136 c 0,0.514982 -0.0619,1.030763 -0.18777,1.544346 -0.11586,0.514982 -0.32761,0.984619 -0.61526,1.389732 -0.28966,0.413504 -0.67919,0.741311 -1.1706,0.991011 -0.49141,0.266081 -1.11666,0.397922 -1.84978,0.397922 -0.68717,0 -1.27247,-0.131841 -1.76388,-0.397922 -0.49141,-0.2497 -0.90492,-0.600879 -1.23252,-1.055134 -0.3356,-0.426687 -0.57731,-0.942468 -0.74111,-1.535557 -0.14783,-0.577506 -0.21774,-1.186775 -0.21774,-1.826008 v -5.431701 c 0,-0.700719 0.0699,-1.349939 0.21774,-1.94922 0.13983,-0.579764 0.36756,-1.079165 0.67918,-1.514582 0.30364,-0.429185 0.70915,-0.764722 1.20056,-1.014423 0.51538,-0.226288 1.13264,-0.344107 1.85777,-0.344107 z"
       style="fill:#000000;fill-opacity:0.94117647;fill-rule:nonzero;stroke:none;stroke-width:0.19976024"
       id="path78" /><path
       d="m 330.23519,19.81226 c 0,-1.272693 -0.21774,-2.405693 -0.65521,-3.395924 -0.42949,-0.9668 -1.01479,-1.786136 -1.7559,-2.465002 -0.74111,-0.663264 -1.60008,-1.162664 -2.56692,-1.514602 -0.94486,-0.351917 -1.94366,-0.523571 -2.98841,-0.523571 -1.05274,0 -2.05953,0.171654 -3.02836,0.523571 -0.95086,0.351938 -1.79385,0.851338 -2.53496,1.514602 -0.74111,0.678866 -1.32641,1.498202 -1.75589,2.465002 -0.43748,0.990231 -0.64723,2.123231 -0.64723,3.395924 v 0.372992 c 0,1.257091 0.20975,2.365141 0.64723,3.331941 0.42948,0.990991 1.01478,1.825928 1.75589,2.505673 0.74111,0.678785 1.5841,1.193767 2.53496,1.543347 0.96883,0.351978 1.97562,0.523572 3.02836,0.523572 1.04475,0 2.04355,-0.171594 2.98841,-0.523572 0.96684,-0.34958 1.82581,-0.864562 2.56692,-1.543347 0.74111,-0.679745 1.32641,-1.514682 1.7559,-2.505673 0.43747,-0.9668 0.65521,-2.07485 0.65521,-3.331941 z m -7.96644,-4.19964 c 0.55334,0 1.07671,0.09441 1.56812,0.281682 0.4994,0.185717 0.92888,0.451818 1.30244,0.803736 0.36755,0.351138 0.65721,0.772512 0.85896,1.264102 0.22573,0.515002 0.34359,1.092449 0.34359,1.732301 v 0.617219 c 0,0.639073 -0.11786,1.20012 -0.34359,1.69173 -0.20175,0.515002 -0.49141,0.952756 -0.85896,1.304674 -0.37356,0.341011 -0.80304,0.614882 -1.30244,0.802956 -0.49141,0.179465 -1.01478,0.273092 -1.56812,0.273092 -0.56133,0 -1.0847,-0.09363 -1.57611,-0.273092 -0.4994,-0.188074 -0.92888,-0.461945 -1.29444,-0.802956 -0.37555,-0.351918 -0.6712,-0.789672 -0.89892,-1.304674 -0.20975,-0.49161 -0.31163,-1.052657 -0.31163,-1.69173 v -0.617219 c 0,-0.639852 0.10188,-1.217299 0.31163,-1.732301 0.22772,-0.49159 0.52337,-0.912964 0.89892,-1.264102 0.36556,-0.351918 0.80303,-0.618019 1.29444,-0.803736 0.49141,-0.187275 1.01478,-0.281682 1.57611,-0.281682 z"
       style="fill:#000000;fill-opacity:0.94117647;fill-rule:nonzero;stroke:none;stroke-width:0.19976024"
       id="path80" /><path
       d="m 349.47809,12.343105 h -3.89332 v 10.744923 c 0,0.429165 -0.10987,0.749101 -0.3356,0.960567 -0.20376,0.226289 -0.48342,0.335517 -0.835,0.335517 -0.4135,0 -0.74111,-0.125629 -0.99081,-0.367518 -0.22573,-0.249701 -0.3356,-0.61722 -0.3356,-1.11662 V 12.343105 h -3.89332 v 10.744923 c 0,0.429165 -0.12585,0.749101 -0.36756,0.960567 -0.22573,0.226289 -0.50739,0.335517 -0.835,0.335517 -0.36756,0 -0.67919,-0.125629 -0.92889,-0.367518 -0.24171,-0.249701 -0.36556,-0.61722 -0.36556,-1.11662 V 12.343105 h -3.89532 V 27.6607 h 3.89532 v -1.482621 h 0.55334 c 0.12585,0.553136 0.39752,1.007391 0.835,1.35857 0.45345,0.36596 1.03675,0.553136 1.75589,0.553136 0.67918,0 1.25649,-0.187176 1.73192,-0.553136 0.47543,-0.351179 0.79704,-0.805434 0.96085,-1.35857 h 0.55333 c 0.16381,0.553136 0.50739,1.007391 1.01479,1.35857 0.53735,0.36596 1.19256,0.553136 1.98162,0.553136 1.02876,0 1.84978,-0.351179 2.46504,-1.052537 0.61726,-0.678985 0.92888,-1.623891 0.92888,-2.840411 z"
       style="fill:#000000;fill-opacity:0.94117647;fill-rule:nonzero;stroke:none;stroke-width:0.19976024"
       id="path82" /><path
       d="m 368.35344,12.343105 h -3.89333 v 10.744923 c 0,0.429165 -0.10987,0.749101 -0.3356,0.960567 -0.20974,0.226289 -0.48342,0.335517 -0.83499,0.335517 -0.41351,0 -0.74111,-0.125629 -0.99081,-0.367518 -0.22573,-0.249701 -0.3356,-0.61722 -0.3356,-1.11662 V 12.343105 h -3.89333 v 10.744923 c 0,0.429165 -0.12585,0.749101 -0.36756,0.960567 -0.22573,0.226289 -0.50739,0.335517 -0.835,0.335517 -0.36556,0 -0.67918,-0.125629 -0.92888,-0.367518 -0.24171,-0.249701 -0.36556,-0.61722 -0.36556,-1.11662 V 12.343105 h -3.89333 V 27.6607 h 3.89333 v -1.482621 h 0.55333 c 0.12585,0.553136 0.39753,1.007391 0.835,1.35857 0.45346,0.36596 1.03876,0.553136 1.75589,0.553136 0.67919,0 1.2565,-0.187176 1.73193,-0.553136 0.47742,-0.351179 0.79704,-0.805434 0.96084,-1.35857 h 0.55334 c 0.1638,0.553136 0.50739,1.007391 1.01478,1.35857 0.53736,0.36596 1.19457,0.553136 1.98162,0.553136 1.03076,0 1.84978,-0.351179 2.46504,-1.052537 0.61726,-0.678985 0.92889,-1.623891 0.92889,-2.840411 z"
       style="fill:#000000;fill-opacity:0.94117647;fill-rule:nonzero;stroke:none;stroke-width:0.19976024"
       id="path84" /><path
       d="m 382.22878,27.6607 h 3.89333 V 12.343105 h -3.89333 v 2.225448 h -0.55533 c -0.67918,-1.772093 -2.14542,-2.655392 -4.38474,-2.655392 -0.76508,0 -1.47423,0.117818 -2.12944,0.367518 -0.6632,0.249701 -1.23452,0.625809 -1.73392,1.139253 -0.49141,0.515002 -0.88094,1.156432 -1.17059,1.919576 -0.26369,0.781103 -0.40552,1.694067 -0.40552,2.746703 V 27.6607 h 3.89533 v -8.769994 c 0,-1.092429 0.25569,-1.942968 0.77107,-2.56644 0.51538,-0.593827 1.28846,-0.89113 2.31722,-0.89113 1.1706,0 2.02956,0.367539 2.56093,1.108829 0.55333,0.764722 0.83499,1.793947 0.83499,3.090051 z"
       style="fill:#000000;fill-opacity:0.94117647;fill-rule:nonzero;stroke:none;stroke-width:0.19976024"
       id="path86" /><path
       d="m 394.61991,12.343105 h -3.89332 V 27.6607 h 3.89332 v -2.285577 h 0.55334 c 0.35158,0.865281 0.92089,1.528685 1.70196,2.005313 0.77906,0.476029 1.69196,0.709349 2.7467,0.709349 0.74111,0 1.42629,-0.124051 2.06752,-0.373752 0.6632,-0.227127 1.23252,-0.585297 1.73192,-1.076108 0.49141,-0.493807 0.87495,-1.12513 1.13863,-1.882041 0.28965,-0.764702 0.43748,-1.669856 0.43748,-2.722512 v -9.692267 h -3.89333 v 8.709087 c 0,1.093207 -0.26568,1.942188 -0.80304,2.559428 -0.51538,0.639073 -1.26448,0.95821 -2.25529,0.95821 -1.15661,0 -2.01358,-0.389373 -2.59089,-1.170456 -0.55533,-0.763164 -0.835,-1.793946 -0.835,-3.087714 z"
       style="fill:#000000;fill-opacity:0.94117647;fill-rule:nonzero;stroke:none;stroke-width:0.19976024"
       id="path88" /><path
       d="m 409.88159,16.050375 h 5.18978 v 7.904573 h -4.81423 V 27.6607 h 8.69956 V 16.050375 h 4.44866 v -3.70727 h -13.52377 z m 10.03596,16.144682 c 0,-0.413503 -0.0859,-0.805233 -0.2497,-1.170395 -0.14183,-0.351977 -0.34359,-0.663404 -0.61726,-0.929484 -0.26568,-0.241111 -0.5853,-0.453256 -0.95086,-0.617259 -0.35158,-0.139633 -0.72713,-0.217539 -1.11666,-0.217539 -0.4135,0 -0.78705,0.07791 -1.13863,0.217539 -0.35158,0.164003 -0.66321,0.376148 -0.92889,0.617259 -0.26568,0.26608 -0.48342,0.577507 -0.64722,0.929484 -0.14982,0.365162 -0.21974,0.756892 -0.21974,1.170395 0,0.413504 0.0699,0.795046 0.21974,1.146225 0.1638,0.367559 0.38154,0.679784 0.64722,0.921693 0.26568,0.273073 0.57731,0.47503 0.92889,0.61706 0.35158,0.171794 0.72513,0.2497 1.13863,0.2497 0.38953,0 0.76508,-0.07791 1.11666,-0.2497 0.36556,-0.14203 0.68518,-0.343987 0.95086,-0.61706 0.27367,-0.241909 0.47543,-0.554134 0.61726,-0.921693 0.1638,-0.351179 0.2497,-0.732721 0.2497,-1.146225 z"
       style="fill:#000000;fill-opacity:0.94117647;fill-rule:nonzero;stroke:none;stroke-width:0.19976024"
       id="path90" /><path
       d="m 428.04779,27.6607 h 4.54255 v 6.297841 h 3.88534 V 27.6607 h 5.53136 v -3.705752 h -5.53136 V 16.97115 c 0,-0.617239 0.28166,-0.920775 0.83499,-0.920775 h 4.13504 v -3.70727 h -6.48422 c -0.69516,0 -1.27247,0.227846 -1.72393,0.678865 -0.43747,0.453376 -0.64722,1.030803 -0.64722,1.732301 v 9.200677 h -4.54255 z"
       style="fill:#000000;fill-opacity:0.94117647;fill-rule:nonzero;stroke:none;stroke-width:0.19976024"
       id="path92" /><path
       d="m 457.73216,27.6607 h 3.89333 V 8.5757463 c 0,-0.7038352 -0.23372,-1.2726865 -0.68718,-1.7260503 -0.42948,-0.4517998 -0.99081,-0.6796523 -1.69396,-0.6796523 h -9.10507 v 3.6994698 h 6.75788 c 0.55334,0 0.835,0.3121255 0.835,0.9293445 v 3.769695 h -0.55533 c -0.67919,-1.772093 -2.14543,-2.655392 -4.38474,-2.655392 -0.76508,0 -1.47423,0.117818 -2.13144,0.367518 -0.6632,0.249701 -1.23252,0.625809 -1.73192,1.139253 -0.49141,0.515002 -0.88094,1.156432 -1.1706,1.919576 -0.26568,0.781103 -0.40551,1.694067 -0.40551,2.746703 V 27.6607 h 3.89333 v -8.769994 c 0,-1.092429 0.25769,-1.951558 0.77307,-2.56644 0.51538,-0.593827 1.28845,-0.89113 2.31722,-0.89113 1.17059,0 2.02157,0.367539 2.56092,1.108829 0.55334,0.764722 0.835,1.793947 0.835,3.090051 z"
       style="fill:#000000;fill-opacity:0.94117647;fill-rule:nonzero;stroke:none;stroke-width:0.19976024"
       id="path94" /><path
       d="m 487.32864,19.076423 h 9.63687 v 3.519995 h -9.63687 z"
       style="fill:#000000;fill-opacity:0.94117647;fill-rule:nonzero;stroke:none;stroke-width:0.19976024"
       id="path96" /><path
       d="m 533.6011,27.348475 c 0,0.866959 -0.3356,1.61606 -1.01478,2.255892 -0.6632,0.639033 -1.60008,0.95825 -2.80863,0.95825 -1.03076,0 -1.84179,-0.217739 -2.44307,-0.654615 -0.59329,-0.405713 -0.89692,-0.97463 -0.89692,-1.692568 0,-0.37535 0.0779,-0.710747 0.21774,-1.022173 0.14982,-0.289453 0.39153,-0.553336 0.74111,-0.803036 0.37555,-0.227727 0.84299,-0.429884 1.42029,-0.61714 0.60128,-0.188054 1.35038,-0.359728 2.2553,-0.523591 2.26328,-0.413564 3.9952,-1.101019 5.18977,-2.067838 1.19456,-0.9668 1.78785,-2.402577 1.78785,-4.29095 v -0.37533 c 0,-1.006591 -0.18777,-1.919556 -0.55533,-2.746703 -0.35158,-0.802936 -0.86496,-1.490391 -1.54415,-2.067039 -0.67918,-0.577427 -1.4982,-1.022992 -2.46704,-1.326528 -0.96684,-0.312125 -2.05953,-0.467419 -3.27606,-0.467419 -1.4203,0 -2.67679,0.201319 -3.76948,0.590691 -1.06872,0.40811 -1.96564,0.969157 -2.68478,1.662085 -0.71714,0.727247 -1.26448,1.562185 -1.63803,2.505573 -0.36756,0.968378 -0.55334,2.013204 -0.55334,3.146224 v 0.926228 h 4.0811 v -0.740511 c 0,-1.294546 0.36556,-2.33314 1.10668,-3.112664 0.76508,-0.764702 1.93567,-1.146284 3.51977,-1.146284 1.23252,0 2.15342,0.263743 2.7467,0.802936 0.60128,0.536856 0.89693,1.170475 0.89693,1.911765 0,0.351159 -0.0619,0.678886 -0.18778,0.991011 -0.12385,0.326947 -0.33559,0.617219 -0.64722,0.866919 -0.30364,0.262965 -0.73312,0.499401 -1.26448,0.70853 -0.53736,0.203656 -1.21654,0.381582 -2.03556,0.523592 -1.09269,0.188054 -2.09149,0.421374 -2.9964,0.709308 -0.90492,0.313684 -1.70196,0.710867 -2.38115,1.202457 -0.65521,0.499401 -1.16859,1.114283 -1.54414,1.85793 -0.36756,0.74135 -0.55334,1.645665 -0.55334,2.714782 v 0.187175 c 0,0.880943 0.17979,1.692568 0.52138,2.433879 0.37555,0.764682 0.88294,1.420095 1.51418,1.983419 0.6632,0.553336 1.44427,0.982421 2.34918,1.294646 0.92888,0.303436 1.95965,0.45885 3.09029,0.45885 1.27247,0 2.40312,-0.185777 3.39393,-0.553336 0.99081,-0.351179 1.80982,-0.834798 2.47303,-1.44986 0.67918,-0.61706 1.17858,-1.326408 1.50619,-2.131642 0.35158,-0.803036 0.53136,-1.645824 0.53136,-2.535357 v -1.10807 h -4.0811 z"
       style="fill:#000000;fill-opacity:0.94117647;fill-rule:nonzero;stroke:none;stroke-width:0.19976024"
       id="path98" /><path
       d="m 540.99023,27.6607 h 6.48422 v -2.223152 h 0.56332 c 0.28766,0.842809 0.77108,1.489632 1.45026,1.942888 0.69517,0.476029 1.53017,0.709349 2.49701,0.709349 1.52217,0 2.7467,-0.48302 3.67558,-1.44986 0.92889,-0.944886 1.38834,-2.397043 1.38834,-4.354853 v -0.679644 l -4.01119,-0.367539 v 0.429964 c 0,0.842728 -0.21774,1.513803 -0.64722,2.005393 -0.43748,0.515801 -1.0847,0.773292 -1.94966,0.773292 -0.86696,0 -1.54614,-0.298063 -2.03755,-0.897343 -0.49141,-0.593049 -0.74112,-1.452177 -0.74112,-2.561007 v -4.937813 h 3.51978 v -3.70727 h -10.55733 v 3.70727 h 3.15222 v 7.904573 h -2.78666 z"
       style="fill:#000000;fill-opacity:0.94117647;fill-rule:nonzero;stroke:none;stroke-width:0.19976024"
       id="path100" /><path
       d="m 560.88835,16.050375 h 5.18977 v 7.904573 h -4.82221 V 27.6607 h 8.70755 V 16.050375 h 4.44866 v -3.70727 h -13.52377 z m 10.03595,16.144682 c 0,-0.413503 -0.0859,-0.805233 -0.2497,-1.170395 -0.14183,-0.351977 -0.35157,-0.663404 -0.61725,-0.929484 -0.26569,-0.241111 -0.5853,-0.453256 -0.95286,-0.617259 -0.34958,-0.139633 -0.72513,-0.217539 -1.11466,-0.217539 -0.41351,0 -0.78906,0.07791 -1.14063,0.217539 -0.34958,0.164003 -0.66321,0.376148 -0.92689,0.617259 -0.26568,0.26608 -0.48542,0.577507 -0.64922,0.929484 -0.14782,0.365162 -0.21774,0.756892 -0.21774,1.170395 0,0.413504 0.0699,0.795046 0.21774,1.146225 0.1638,0.367559 0.38354,0.679784 0.64922,0.921693 0.26368,0.273073 0.57731,0.47503 0.92689,0.61706 0.35157,0.171794 0.72712,0.2497 1.14063,0.2497 0.38953,0 0.76508,-0.07791 1.11466,-0.2497 0.36756,-0.14203 0.68717,-0.343987 0.95286,-0.61706 0.26568,-0.241909 0.47542,-0.554134 0.61725,-0.921693 0.16381,-0.351179 0.2497,-0.732721 0.2497,-1.146225 z"
       style="fill:#000000;fill-opacity:0.94117647;fill-rule:nonzero;stroke:none;stroke-width:0.19976024"
       id="path102" /><path
       d="m 598.48323,33.958541 h 4.0811 V 16.22984 h 9.81622 v -3.886735 h -13.89732 z"
       style="fill:#000000;fill-opacity:0.94117647;fill-rule:nonzero;stroke:none;stroke-width:0.19976024"
       id="path104" /><path
       d="m 627.15282,14.568553 c -0.41351,-0.969136 -0.99081,-1.662065 -1.73192,-2.070175 -0.74111,-0.389372 -1.60807,-0.585217 -2.59089,-0.585217 -0.92889,0 -1.80184,0.171654 -2.62885,0.523571 -0.80503,0.351938 -1.51418,0.86694 -2.13144,1.545805 -0.61526,0.677327 -1.10867,1.498202 -1.48222,2.4658 -0.35158,0.9668 -0.52337,2.067039 -0.52337,3.30775 v 0.49159 c 0,1.218078 0.17179,2.302716 0.52337,3.269516 0.35158,0.9668 0.82701,1.796284 1.42029,2.473511 0.60128,0.678985 1.28646,1.194766 2.06752,1.545945 0.80304,0.36596 1.66201,0.553136 2.56692,0.553136 1.09269,0 1.96764,-0.187176 2.62285,-0.553136 0.67919,-0.37535 1.21654,-0.952857 1.60608,-1.731522 h 0.55533 V 27.6607 h 3.89333 V 16.97115 c 0,-0.617239 0.27367,-0.920775 0.83499,-0.920775 h 0.5853 v -3.70727 h -2.66081 c -0.69516,0 -1.27247,0.203655 -1.72393,0.617219 -0.43747,0.413583 -0.64922,0.944966 -0.64922,1.608229 z m -3.46385,1.044067 c 1.13065,0 2.04355,0.376109 2.72274,1.11662 0.67918,0.757691 1.01478,1.786136 1.01478,3.08302 v 0.372992 c 0,1.296884 -0.3356,2.317539 -1.01478,3.058829 -0.67919,0.756911 -1.59209,1.140031 -2.72274,1.140031 -1.13264,0 -2.03755,-0.38312 -2.71673,-1.140031 -0.67919,-0.74129 -1.01479,-1.761945 -1.01479,-3.058829 V 19.81226 c 0,-1.296884 0.3356,-2.325329 1.01479,-3.08302 0.67918,-0.740511 1.58409,-1.11662 2.71673,-1.11662 z"
       style="fill:#000000;fill-opacity:0.94117647;fill-rule:nonzero;stroke:none;stroke-width:0.19976024"
       id="path106" /><path
       d="m 640.00539,12.343105 h -3.89532 V 27.6607 h 3.89532 v -2.285577 h 0.55334 c 0.35157,0.865281 0.92089,1.528685 1.69996,2.005313 0.78106,0.476029 1.69396,0.709349 2.7487,0.709349 0.74111,0 1.42629,-0.124051 2.06752,-0.373752 0.6632,-0.227127 1.23252,-0.585297 1.73192,-1.076108 0.49141,-0.493807 0.87295,-1.12513 1.13863,-1.882041 0.28965,-0.764702 0.42949,-1.669856 0.42949,-2.722512 v -9.692267 h -3.88534 v 8.709087 c 0,1.093207 -0.26568,1.942188 -0.80504,2.559428 -0.51338,0.639073 -1.26248,0.95821 -2.25529,0.95821 -1.15461,0 -2.01158,-0.389373 -2.58889,-1.170456 -0.55533,-0.763164 -0.835,-1.793946 -0.835,-3.087714 z"
       style="fill:#000000;fill-opacity:0.94117647;fill-rule:nonzero;stroke:none;stroke-width:0.19976024"
       id="path108" /><path
       d="m 660.11326,22.035372 h 0.74111 l 4.0811,5.625328 h 4.26088 v -0.185777 l -4.94806,-7.007969 V 19.90357 l 5.43948,-7.37319 v -0.187275 h -4.44867 l -4.38473,5.992807 h -0.74111 v -5.992807 h -3.88534 v 21.615436 h 3.88534 z"
       style="fill:#000000;fill-opacity:0.94117647;fill-rule:nonzero;stroke:none;stroke-width:0.19976024"
       id="path110" /><path
       d="m 683.78085,14.568553 c -0.4135,-0.969136 -0.99081,-1.662065 -1.73392,-2.070175 -0.74111,-0.389372 -1.60607,-0.585217 -2.58889,-0.585217 -0.92889,0 -1.80384,0.171654 -2.63084,0.523571 -0.80304,0.351938 -1.51419,0.86694 -2.12945,1.545805 -0.61726,0.677327 -1.10867,1.498202 -1.48222,2.4658 -0.35158,0.9668 -0.52337,2.067039 -0.52337,3.30775 v 0.49159 c 0,1.218078 0.17179,2.302716 0.52337,3.269516 0.34958,0.9668 0.82701,1.796284 1.4203,2.473511 0.59928,0.678985 1.28645,1.194766 2.06751,1.545945 0.80304,0.36596 1.66201,0.553136 2.56692,0.553136 1.09269,0 1.96564,-0.187176 2.62086,-0.553136 0.67918,-0.37535 1.21854,-0.952857 1.60807,-1.731522 h 0.55333 V 27.6607 h 3.89533 V 16.97115 c 0,-0.617239 0.27167,-0.920775 0.835,-0.920775 h 0.58529 v -3.70727 h -2.6628 c -0.69317,0 -1.27048,0.203655 -1.72393,0.617219 -0.43748,0.413583 -0.64722,0.944966 -0.64722,1.608229 z m -3.46584,1.044067 c 1.13264,0 2.04554,0.376109 2.72473,1.11662 0.67719,0.757691 1.01278,1.786136 1.01278,3.08302 v 0.372992 c 0,1.296884 -0.33559,2.317539 -1.01278,3.058829 -0.67919,0.756911 -1.59209,1.140031 -2.72473,1.140031 -1.13064,0 -2.03556,-0.38312 -2.71474,-1.140031 -0.67919,-0.74129 -1.01478,-1.761945 -1.01478,-3.058829 V 19.81226 c 0,-1.296884 0.33559,-2.325329 1.01478,-3.08302 0.67918,-0.740511 1.5841,-1.11662 2.71474,-1.11662 z"
       style="fill:#000000;fill-opacity:0.94117647;fill-rule:nonzero;stroke:none;stroke-width:0.19976024"
       id="path112" /></g></svg>