<?xml version="1.0" encoding="UTF-8" standalone="no"?>
<!-- Created with Inkscape (http://www.inkscape.org/) -->

<svg
   xmlns:dc="http://purl.org/dc/elements/1.1/"
   xmlns:cc="http://creativecommons.org/ns#"
   xmlns:rdf="http://www.w3.org/1999/02/22-rdf-syntax-ns#"
   xmlns:svg="http://www.w3.org/2000/svg"
   xmlns="http://www.w3.org/2000/svg"
   xmlns:sodipodi="http://sodipodi.sourceforge.net/DTD/sodipodi-0.dtd"
   xmlns:inkscape="http://www.inkscape.org/namespaces/inkscape"
   width="210mm"
   height="297mm"
   viewBox="0 0 210 297"
   version="1.1"
   id="svg8"
   inkscape:version="0.92.2 5c3e80d, 2017-08-06"
   sodipodi:docname="fosslk_logo_options.svg">
  <defs
     id="defs2" />
  <sodipodi:namedview
     id="base"
     pagecolor="#ffffff"
     bordercolor="#666666"
     borderopacity="1.0"
     inkscape:pageopacity="0.0"
     inkscape:pageshadow="2"
     inkscape:zoom="0.98994949"
     inkscape:cx="391.08066"
     inkscape:cy="768.41945"
     inkscape:document-units="mm"
     inkscape:current-layer="layer1"
     showgrid="false"
     inkscape:window-width="1920"
     inkscape:window-height="1151"
     inkscape:window-x="0"
     inkscape:window-y="1"
     inkscape:window-maximized="1" />
  <metadata
     id="metadata5">
    <rdf:RDF>
      <cc:Work
         rdf:about="">
        <dc:format>image/svg+xml</dc:format>
        <dc:type
           rdf:resource="http://purl.org/dc/dcmitype/StillImage" />
        <dc:title></dc:title>
      </cc:Work>
    </rdf:RDF>
  </metadata>
  <g
     inkscape:label="Layer 1"
     inkscape:groupmode="layer"
     id="layer1">
    <flowRoot
       xml:space="preserve"
       id="flowRoot815"
       style="font-style:normal;font-weight:normal;font-size:40px;line-height:1.25;font-family:sans-serif;letter-spacing:0px;word-spacing:0px;fill:#000000;fill-opacity:1;stroke:none"
       transform="scale(0.26458333)"><flowRegion
         id="flowRegion817"><rect
           id="rect819"
           width="400"
           height="311.42856"
           x="57.142857"
           y="336.80539" /></flowRegion><flowPara
         id="flowPara821" /></flowRoot>    <flowRoot
       transform="matrix(0.47006828,0,0,0.47561921,-35.449237,2.9674081)"
       style="font-style:normal;font-weight:normal;font-size:40px;line-height:1.25;font-family:sans-serif;letter-spacing:0px;word-spacing:0px;fill:#000000;fill-opacity:1;stroke:none"
       id="flowRoot875"
       xml:space="preserve"><flowRegion
         id="flowRegion871"><rect
           y="245.37683"
           x="105.71429"
           height="528.57141"
           width="648.57141"
           id="rect869" /></flowRegion><flowPara
         style="font-style:normal;font-variant:normal;font-weight:normal;font-stretch:normal;font-size:85.33333588px;font-family:flosslk;-inkscape-font-specification:flosslk"
         id="flowPara873">o</flowPara></flowRoot>    <g
       aria-label="f  ss.lk"
       transform="matrix(1.3711047,0,-0.13917992,1.3711047,-52.276386,-71.657659)"
       style="font-style:normal;font-weight:normal;font-size:13.54167175px;line-height:1.25;font-family:sans-serif;letter-spacing:0px;word-spacing:0px;fill:#000000;fill-opacity:1;stroke:none;stroke-width:0.33854181"
       id="text893">
      <path
         d="m 62.297815,155.71576 h 1.909375 v -1.38125 q 0,-0.58229 0.392709,-0.975 0.392708,-0.40625 0.975,-0.40625 h 2.735418 v 1.625 h -2.031251 q -0.365625,0 -0.365625,0.40625 v 0.73125 h 2.640626 v 1.62501 h -2.640626 v 5.09166 H 64.20719 v -5.09166 h -1.909375 z"
         style="font-style:normal;font-variant:normal;font-weight:bold;font-stretch:normal;font-family:'Space Mono';-inkscape-font-specification:'Space Mono Bold';stroke-width:0.33854181"
         id="path4584"
         inkscape:connector-curvature="0" />
      <path
         d="m 84.135672,157.6116 q 0,0.325 0.338542,0.47396 0.338542,0.13541 1.232292,0.23021 1.029167,0.10833 1.679167,0.62291 0.650001,0.50104 0.650001,1.40834 v 0.0813 q 0,1.00208 -0.731251,1.59791 -0.73125,0.59584 -2.058334,0.59584 -0.785417,0 -1.340625,-0.20313 -0.555209,-0.20312 -0.920834,-0.50104 -0.365625,-0.31146 -0.56875,-0.67708 -0.189584,-0.37917 -0.257292,-0.73125 l 1.570834,-0.51459 q 0.108333,0.43334 0.446875,0.75834 0.352084,0.325 1.069792,0.325 0.636459,0 0.866667,-0.18959 0.24375,-0.20312 0.24375,-0.43333 0,-0.13542 -0.06771,-0.24375 -0.05417,-0.12188 -0.216667,-0.21667 -0.1625,-0.10833 -0.446875,-0.17604 -0.270833,-0.0677 -0.690625,-0.10833 -1.137501,-0.0948 -1.814584,-0.58229 -0.663542,-0.50105 -0.663542,-1.4625 v -0.0813 q 0,-0.50105 0.216667,-0.88021 0.216666,-0.37917 0.56875,-0.63646 0.352083,-0.27084 0.8125,-0.40625 0.460417,-0.13542 0.947917,-0.13542 0.636459,0 1.096876,0.1625 0.473958,0.14896 0.798958,0.40625 0.325,0.24375 0.528125,0.55521 0.203125,0.29792 0.311459,0.58229 l -1.543751,0.62292 q -0.121875,-0.36563 -0.419792,-0.56875 -0.297916,-0.21667 -0.771875,-0.21667 -0.433333,0 -0.65,0.1625 -0.216667,0.14896 -0.216667,0.37917 z"
         style="font-style:normal;font-variant:normal;font-weight:bold;font-stretch:normal;font-family:'Space Mono';-inkscape-font-specification:'Space Mono Bold';stroke-width:0.33854181"
         id="path4586"
         inkscape:connector-curvature="0" />
      <path
         d="m 92.414076,157.6116 q 0,0.325 0.338542,0.47396 0.338542,0.13541 1.232292,0.23021 1.029167,0.10833 1.679168,0.62291 0.65,0.50104 0.65,1.40834 v 0.0813 q 0,1.00208 -0.73125,1.59791 -0.731251,0.59584 -2.058335,0.59584 -0.785417,0 -1.340625,-0.20313 -0.555209,-0.20312 -0.920834,-0.50104 -0.365625,-0.31146 -0.56875,-0.67708 -0.189583,-0.37917 -0.257292,-0.73125 l 1.570834,-0.51459 q 0.108334,0.43334 0.446875,0.75834 0.352084,0.325 1.069792,0.325 0.636459,0 0.866667,-0.18959 0.243751,-0.20312 0.243751,-0.43333 0,-0.13542 -0.06771,-0.24375 -0.05417,-0.12188 -0.216667,-0.21667 -0.1625,-0.10833 -0.446875,-0.17604 -0.270833,-0.0677 -0.690625,-0.10833 -1.1375,-0.0948 -1.814584,-0.58229 -0.663542,-0.50105 -0.663542,-1.4625 v -0.0813 q 0,-0.50105 0.216667,-0.88021 0.216667,-0.37917 0.56875,-0.63646 0.352083,-0.27084 0.8125,-0.40625 0.460417,-0.13542 0.947917,-0.13542 0.636459,0 1.096876,0.1625 0.473958,0.14896 0.798958,0.40625 0.325001,0.24375 0.528126,0.55521 0.203125,0.29792 0.311458,0.58229 l -1.543751,0.62292 q -0.121875,-0.36563 -0.419791,-0.56875 -0.297917,-0.21667 -0.771876,-0.21667 -0.433333,0 -0.65,0.1625 -0.216667,0.14896 -0.216666,0.37917 z"
         style="font-style:normal;font-variant:normal;font-weight:bold;font-stretch:normal;font-family:'Space Mono';-inkscape-font-specification:'Space Mono Bold';stroke-width:0.33854181"
         id="path4588"
         inkscape:connector-curvature="0" />
      <path
         d="m 101.4309,159.57872 q 0,0.27083 -0.10833,0.51458 -0.0948,0.23021 -0.27083,0.40625 -0.17605,0.1625 -0.4198,0.25729 -0.2302,0.10834 -0.4875,0.10834 -0.270826,0 -0.501036,-0.10834 -0.230206,-0.0948 -0.406246,-0.25729 -0.176036,-0.17604 -0.284366,-0.40625 -0.0948,-0.24375 -0.0948,-0.51458 0,-0.27083 0.0948,-0.50104 0.10833,-0.24375 0.284366,-0.40625 0.17604,-0.17605 0.406246,-0.27084 0.23021,-0.10833 0.501036,-0.10833 0.2573,0 0.4875,0.10833 0.24375,0.0948 0.4198,0.27084 0.17604,0.1625 0.27083,0.40625 0.10833,0.23021 0.10833,0.50104 z"
         style="font-style:normal;font-variant:normal;font-weight:bold;font-stretch:normal;font-family:'Space Mono';-inkscape-font-specification:'Space Mono Bold';stroke-width:0.33854181"
         id="path4590"
         inkscape:connector-curvature="0" />
      <path
         d="m 104.15542,160.80743 h 2.35625 v -6.22917 h -2.275 v -1.625 h 3.98125 v 7.85417 h 2.19375 v 1.625 h -6.25625 z"
         style="font-style:normal;font-variant:normal;font-weight:bold;font-stretch:normal;font-family:'Space Mono';-inkscape-font-specification:'Space Mono Bold';stroke-width:0.33854181"
         id="path4592"
         inkscape:connector-curvature="0" />
      <path
         d="m 113.84394,158.18035 h 0.325 l 1.7875,-2.46459 h 1.86875 v 0.0813 l -2.16666,3.07396 v 0.24375 l 2.38333,3.23646 v 0.0813 h -1.95 l -1.92292,-2.62708 h -0.325 v 2.62708 h -1.70625 v -9.47917 h 1.70625 z"
         style="font-style:normal;font-variant:normal;font-weight:bold;font-stretch:normal;font-family:'Space Mono';-inkscape-font-specification:'Space Mono Bold';stroke-width:0.33854181"
         id="path4594"
         inkscape:connector-curvature="0" />
    </g>
    <flowRoot
       xml:space="preserve"
       id="flowRoot4813"
       style="font-style:normal;font-weight:normal;font-size:40px;line-height:1.25;font-family:sans-serif;letter-spacing:0px;word-spacing:0px;fill:#000000;fill-opacity:1;stroke:none"
       transform="matrix(0.41306164,0,0,0.41793939,-27.330029,-100.7252)"><flowRegion
         id="flowRegion4809"><rect
           id="rect4807"
           width="648.57141"
           height="528.57141"
           x="105.71429"
           y="245.37683" /></flowRegion><flowPara
         id="flowPara4811"
         style="font-style:normal;font-variant:normal;font-weight:normal;font-stretch:normal;font-size:85.33333588px;font-family:flosslk;-inkscape-font-specification:flosslk">o</flowPara></flowRoot>    <g
       aria-label="f ss.lk"
       style="font-style:normal;font-weight:normal;font-size:10.58333302px;line-height:1.25;font-family:sans-serif;letter-spacing:0px;word-spacing:0px;fill:#000000;fill-opacity:1;stroke:none;stroke-width:0.26458332"
       id="g4827"
       transform="matrix(1.8795279,0,0,1.8795279,-62.792397,-179.41098)">
      <path
         d="m 41.952404,111.55544 h -1.054199 v -3.56567 h -0.501262 q -0.351399,0 -0.475423,-0.10852 -0.222208,-0.14986 -0.222208,-0.42375 0,-0.13952 0.06718,-0.26355 0.06718,-0.12402 0.186035,-0.1912 0.108521,-0.0724 0.454753,-0.0724 h 0.490926 v -0.39274 q 0,-0.72864 0.54777,-1.15238 0.54777,-0.42375 1.493449,-0.42375 0.335897,0 0.764811,0.0517 0.428914,0.0517 0.682129,0.11885 0.444417,0.11369 0.444417,0.4961 0,0.22737 -0.144694,0.38757 -0.144694,0.15503 -0.3514,0.15503 -0.06718,0 -0.294555,-0.0362 -0.661459,-0.11369 -1.198893,-0.11369 -0.888835,0 -0.888835,0.51676 v 0.39274 h 1.601969 q 0.341065,0 0.475423,0.093 0.222209,0.16536 0.222209,0.43408 0,0.28939 -0.253214,0.45475 -0.124024,0.0775 -0.444418,0.0775 h -1.601969 z"
         style="font-style:normal;font-variant:normal;font-weight:normal;font-stretch:normal;font-family:NotCourierSans;-inkscape-font-specification:NotCourierSans;stroke-width:0.26458332"
         id="path4815"
         inkscape:connector-curvature="0" />
      <path
         d="m 53.41837,110.01032 c 0.110244,-0.14814 0.254938,-0.22221 0.434082,-0.22221 0.265273,0 0.444418,0.15503 0.537435,0.46509 0.306614,0.27561 0.747586,0.41341 1.322917,0.41341 0.33762,0 0.62873,-0.0448 0.873331,-0.13436 0.244602,-0.093 0.366903,-0.19982 0.366903,-0.32039 0,-0.0689 -0.03273,-0.13781 -0.09819,-0.20671 -0.06546,-0.0689 -0.15331,-0.12402 -0.26355,-0.16536 -0.172254,-0.0689 -0.496093,-0.1292 -0.971517,-0.18087 -0.740695,-0.0792 -1.27813,-0.23082 -1.612305,-0.45475 -0.330728,-0.22393 -0.496093,-0.54433 -0.496093,-0.96119 0,-0.42375 0.203261,-0.7717 0.609782,-1.04386 0.409966,-0.27216 0.933621,-0.40824 1.570963,-0.40824 0.5271,0 0.981852,0.093 1.364258,0.27905 0.241157,0.11713 0.440972,0.26183 0.599446,0.43408 0.158475,0.16881 0.237712,0.34796 0.237712,0.53744 0,0.11024 -0.03101,0.22048 -0.09302,0.33072 -0.04479,0.0655 -0.10852,0.11714 -0.191202,0.15503 -0.07924,0.0379 -0.160197,0.0569 -0.24288,0.0569 -0.206705,0 -0.372069,-0.11024 -0.496093,-0.33073 l -0.05684,-0.093 c -0.285943,-0.20671 -0.649401,-0.31006 -1.090373,-0.31006 -0.268717,0 -0.509874,0.0379 -0.72347,0.11369 -0.213596,0.0758 -0.320394,0.16192 -0.320394,0.25838 0,0.10335 0.0913,0.18776 0.273885,0.25322 0.124024,0.0413 0.420302,0.0947 0.888835,0.16019 0.71658,0.093 1.228177,0.22738 1.53479,0.40308 0.230822,0.12747 0.411689,0.298 0.542602,0.5116 0.130914,0.21015 0.196371,0.43752 0.196371,0.68213 0,0.43408 -0.222208,0.79237 -0.666626,1.07487 -0.444417,0.27905 -1.00769,0.41858 -1.68982,0.41858 -0.57533,0 -1.098985,-0.10335 -1.570963,-0.31006 -0.251492,-0.11025 -0.45992,-0.26872 -0.625285,-0.47543 -0.165364,-0.21015 -0.248047,-0.41513 -0.248047,-0.61495 0,-0.12057 0.03445,-0.22565 0.103353,-0.31522 z"
         style="font-style:normal;font-variant:normal;font-weight:normal;font-stretch:normal;font-family:NotCourierSans;-inkscape-font-specification:NotCourierSans;stroke-width:0.26458332"
         id="path4817"
         inkscape:connector-curvature="0"
         sodipodi:nodetypes="cscscsscccscsccsccsccsssccccscsccscc" />
      <path
         d="m 59.764236,110.01032 c 0.110244,-0.14814 0.254938,-0.22221 0.434082,-0.22221 0.265273,0 0.444418,0.15503 0.537435,0.46509 0.306614,0.27561 0.747586,0.41341 1.322917,0.41341 0.33762,0 0.62873,-0.0448 0.873332,-0.13436 0.244602,-0.093 0.366902,-0.19982 0.366902,-0.32039 0,-0.0689 -0.03273,-0.13781 -0.09819,-0.20671 -0.06546,-0.0689 -0.15331,-0.12402 -0.26355,-0.16536 -0.172254,-0.0689 -0.496093,-0.1292 -0.971517,-0.18087 -0.740695,-0.0792 -1.27813,-0.23082 -1.612304,-0.45475 -0.330729,-0.22393 -0.496094,-0.54433 -0.496094,-0.96119 0,-0.42375 0.203261,-0.7717 0.609782,-1.04386 0.409966,-0.27216 0.933621,-0.40824 1.570963,-0.40824 0.5271,0 0.981853,0.093 1.364258,0.27905 0.241157,0.11713 0.440973,0.26183 0.599447,0.43408 0.158474,0.16881 0.237711,0.34796 0.237711,0.53744 0,0.11024 -0.03101,0.22048 -0.09302,0.33072 -0.04479,0.0655 -0.108521,0.11714 -0.191203,0.15503 -0.07924,0.0379 -0.160197,0.0569 -0.242879,0.0569 -0.206706,0 -0.37207,-0.11024 -0.496094,-0.33073 l -0.05684,-0.093 c -0.285943,-0.20671 -0.649401,-0.31006 -1.090373,-0.31006 -0.268717,0 -0.509874,0.0379 -0.72347,0.11369 -0.213596,0.0758 -0.320394,0.16192 -0.320394,0.25838 0,0.10335 0.0913,0.18776 0.273885,0.25322 0.124024,0.0413 0.420302,0.0947 0.888835,0.16019 0.71658,0.093 1.228177,0.22738 1.53479,0.40308 0.230822,0.12747 0.411689,0.298 0.542602,0.5116 0.130914,0.21015 0.196371,0.43752 0.196371,0.68213 0,0.43408 -0.222208,0.79237 -0.666626,1.07487 -0.444417,0.27905 -1.00769,0.41858 -1.689819,0.41858 -0.575331,0 -1.098986,-0.10335 -1.570964,-0.31006 -0.251492,-0.11025 -0.45992,-0.26872 -0.625285,-0.47543 -0.165364,-0.21015 -0.248047,-0.41513 -0.248047,-0.61495 0,-0.12057 0.03445,-0.22565 0.103353,-0.31522 z"
         style="font-style:normal;font-variant:normal;font-weight:normal;font-stretch:normal;font-family:NotCourierSans;-inkscape-font-specification:NotCourierSans;stroke-width:0.26458332"
         id="path4819"
         inkscape:connector-curvature="0"
         sodipodi:nodetypes="cscscsscccscsccsccsccsssccccscsccscc" />
      <path
         d="m 67.973553,110.12814 h -0.191202 c -0.192925,0 -0.35829,-0.0672 -0.496094,-0.20154 -0.134359,-0.1378 -0.201538,-0.30317 -0.201538,-0.49609 0,-0.19293 0.0689,-0.3583 0.206705,-0.4961 0.137804,-0.1378 0.301446,-0.2067 0.490927,-0.2067 h 0.191202 c 0.196371,0 0.361735,0.0689 0.496094,0.2067 0.134359,0.13436 0.201538,0.29972 0.201538,0.4961 0,0.19636 -0.06718,0.36173 -0.201538,0.49609 -0.134359,0.13436 -0.299723,0.20154 -0.496094,0.20154 z"
         style="font-style:normal;font-variant:normal;font-weight:normal;font-stretch:normal;font-family:NotCourierSans;-inkscape-font-specification:NotCourierSans;stroke-width:0.26458332"
         id="path4821"
         inkscape:connector-curvature="0"
         sodipodi:nodetypes="sscscsscsss" />
      <path
         d="m 71.577468,111.55544 v -5.54488 h -0.826823 c -0.241157,0 -0.403077,-0.0362 -0.485759,-0.10852 -0.148139,-0.093 -0.222208,-0.23427 -0.222208,-0.42375 0,-0.2067 0.0844,-0.35828 0.253214,-0.45475 0.07235,-0.0483 0.223931,-0.0724 0.454753,-0.0724 h 1.88619 v 6.60425 z"
         style="font-style:normal;font-variant:normal;font-weight:normal;font-stretch:normal;font-family:NotCourierSans;-inkscape-font-specification:NotCourierSans;stroke-width:0.26458332"
         id="path4823"
         inkscape:connector-curvature="0"
         sodipodi:nodetypes="ccscscsccc" />
      <path
         d="m 79.880838,111.55544 h -1.596802 l -2.129069,-1.88619 -0.191202,0.14986 v 1.73633 h -1.0542 v -6.60425 h 1.0542 v 3.56568 l 1.989542,-1.58647 h 1.565796 l -2.537313,2.07223 z"
         style="font-style:normal;font-variant:normal;font-weight:normal;font-stretch:normal;font-family:NotCourierSans;-inkscape-font-specification:NotCourierSans;stroke-width:0.26458332"
         id="path4825"
         inkscape:connector-curvature="0"
         sodipodi:nodetypes="ccccccccccccc" />
    </g>
    <text
       xml:space="preserve"
       style="font-style:normal;font-variant:normal;font-weight:bold;font-stretch:normal;font-size:3.82334709px;line-height:1.25;font-family:'Space Mono';-inkscape-font-specification:'Space Mono Bold';letter-spacing:0px;word-spacing:0px;fill:#000000;fill-opacity:1;stroke:none;stroke-width:0.09558368"
       x="13.324563"
       y="36.850971"
       id="text4833"><tspan
         id="tspan4845"
         sodipodi:role="line"
         x="13.324563"
         y="36.850971"
         style="font-style:normal;font-variant:normal;font-weight:bold;font-stretch:normal;font-size:3.0922389px;line-height:0;font-family:'Space Mono';-inkscape-font-specification:'Space Mono Bold';stroke-width:0.09558368">Free and Open Source Software Community </tspan><tspan
         sodipodi:role="line"
         x="13.324563"
         y="41.630154"
         style="font-style:normal;font-variant:normal;font-weight:bold;font-stretch:normal;font-size:1.78422868px;line-height:0;font-family:'Space Mono';-inkscape-font-specification:'Space Mono Bold';stroke-width:0.09558368"
         id="tspan4831" /></text>
    <text
       id="text4839"
       y="155.10521"
       x="109.5951"
       style="font-style:normal;font-variant:normal;font-weight:bold;font-stretch:normal;font-size:3.92567539px;line-height:1.25;font-family:'Space Mono';-inkscape-font-specification:'Space Mono Bold';letter-spacing:0px;word-spacing:0px;fill:#000000;fill-opacity:1;stroke:none;stroke-width:0.09814189"
       xml:space="preserve"><tspan
         id="tspan4837"
         style="font-style:normal;font-variant:normal;font-weight:bold;font-stretch:normal;font-size:1.8319819px;line-height:0;font-family:'Space Mono';-inkscape-font-specification:'Space Mono Bold';stroke-width:0.09814189"
         y="158.5647"
         x="109.5951"
         sodipodi:role="line" /></text>
    <text
       xml:space="preserve"
       style="font-style:italic;font-variant:normal;font-weight:bold;font-stretch:normal;font-size:3.92567539px;line-height:1.25;font-family:'Space Mono';-inkscape-font-specification:'Space Mono Bold Italic';letter-spacing:0px;word-spacing:0px;fill:#000000;fill-opacity:1;stroke:none;stroke-width:0.09814189"
       x="13.248956"
       y="41.523365"
       id="text4857"><tspan
         sodipodi:role="line"
         x="13.248956"
         y="41.523365"
         style="font-style:italic;font-variant:normal;font-weight:bold;font-stretch:normal;font-size:3.17499995px;line-height:0;font-family:'Space Mono';-inkscape-font-specification:'Space Mono Bold Italic';stroke-width:0.09814189"
         id="tspan4853">Sri Lanka_</tspan><tspan
         sodipodi:role="line"
         x="13.248956"
         y="46.430458"
         style="font-style:italic;font-variant:normal;font-weight:bold;font-stretch:normal;font-size:1.8319819px;line-height:0;font-family:'Space Mono';-inkscape-font-specification:'Space Mono Bold Italic';stroke-width:0.09814189"
         id="tspan4855" /></text>
    <text
       id="text4881"
       y="157.99234"
       x="11.812658"
       style="font-style:normal;font-variant:normal;font-weight:bold;font-stretch:normal;font-size:3.82334709px;line-height:1.25;font-family:'Space Mono';-inkscape-font-specification:'Space Mono Bold';letter-spacing:0px;word-spacing:0px;fill:#000000;fill-opacity:1;stroke:none;stroke-width:0.09558368"
       xml:space="preserve"><tspan
         style="font-style:normal;font-variant:normal;font-weight:bold;font-stretch:normal;font-size:3.0922389px;line-height:0;font-family:'Space Mono';-inkscape-font-specification:'Space Mono Bold';stroke-width:0.09558368"
         y="157.99234"
         x="11.812658"
         sodipodi:role="line"
         id="tspan4877">Free and Open Source Software Community </tspan><tspan
         id="tspan4879"
         style="font-style:normal;font-variant:normal;font-weight:bold;font-stretch:normal;font-size:1.78422868px;line-height:0;font-family:'Space Mono';-inkscape-font-specification:'Space Mono Bold';stroke-width:0.09558368"
         y="162.77153"
         x="11.812658"
         sodipodi:role="line" /></text>
    <text
       id="text4887"
       y="162.66475"
       x="11.737051"
       style="font-style:italic;font-variant:normal;font-weight:bold;font-stretch:normal;font-size:3.92567539px;line-height:1.25;font-family:'Space Mono';-inkscape-font-specification:'Space Mono Bold Italic';letter-spacing:0px;word-spacing:0px;fill:#000000;fill-opacity:1;stroke:none;stroke-width:0.09814189"
       xml:space="preserve"><tspan
         id="tspan4883"
         style="font-style:italic;font-variant:normal;font-weight:bold;font-stretch:normal;font-size:3.17499995px;line-height:0;font-family:'Space Mono';-inkscape-font-specification:'Space Mono Bold Italic';stroke-width:0.09814189"
         y="162.66475"
         x="11.737051"
         sodipodi:role="line">Sri Lanka_</tspan><tspan
         id="tspan4885"
         style="font-style:italic;font-variant:normal;font-weight:bold;font-stretch:normal;font-size:1.8319819px;line-height:0;font-family:'Space Mono';-inkscape-font-specification:'Space Mono Bold Italic';stroke-width:0.09814189"
         y="167.57184"
         x="11.737051"
         sodipodi:role="line" /></text>
    <flowRoot
       transform="matrix(0.41306164,0,0,0.41793939,-27.141041,-47.052578)"
       style="font-style:normal;font-weight:normal;font-size:40px;line-height:1.25;font-family:sans-serif;letter-spacing:0px;word-spacing:0px;fill:#000000;fill-opacity:1;stroke:none"
       id="flowRoot4931"
       xml:space="preserve"><flowRegion
         id="flowRegion4927"><rect
           y="245.37683"
           x="105.71429"
           height="528.57141"
           width="648.57141"
           id="rect4925" /></flowRegion><flowPara
         style="font-style:normal;font-variant:normal;font-weight:normal;font-stretch:normal;font-size:85.33333588px;font-family:flosslk;-inkscape-font-specification:flosslk"
         id="flowPara4929">o</flowPara></flowRoot>    <g
       transform="matrix(1.8795279,0,-0.16727798,1.8795279,-44.480747,-125.73835)"
       id="g4945"
       style="font-style:normal;font-weight:normal;font-size:10.58333302px;line-height:1.25;font-family:sans-serif;letter-spacing:0px;word-spacing:0px;fill:#000000;fill-opacity:1;stroke:none;stroke-width:0.26458332"
       aria-label="f ss.lk">
      <path
         inkscape:connector-curvature="0"
         id="path4933"
         style="font-style:normal;font-variant:normal;font-weight:normal;font-stretch:normal;font-family:NotCourierSans;-inkscape-font-specification:NotCourierSans;stroke-width:0.26458332"
         d="m 41.952404,111.55544 h -1.054199 v -3.56567 h -0.501262 q -0.351399,0 -0.475423,-0.10852 -0.222208,-0.14986 -0.222208,-0.42375 0,-0.13952 0.06718,-0.26355 0.06718,-0.12402 0.186035,-0.1912 0.108521,-0.0724 0.454753,-0.0724 h 0.490926 v -0.39274 q 0,-0.72864 0.54777,-1.15238 0.54777,-0.42375 1.493449,-0.42375 0.335897,0 0.764811,0.0517 0.428914,0.0517 0.682129,0.11885 0.444417,0.11369 0.444417,0.4961 0,0.22737 -0.144694,0.38757 -0.144694,0.15503 -0.3514,0.15503 -0.06718,0 -0.294555,-0.0362 -0.661459,-0.11369 -1.198893,-0.11369 -0.888835,0 -0.888835,0.51676 v 0.39274 h 1.601969 q 0.341065,0 0.475423,0.093 0.222209,0.16536 0.222209,0.43408 0,0.28939 -0.253214,0.45475 -0.124024,0.0775 -0.444418,0.0775 h -1.601969 z" />
      <path
         sodipodi:nodetypes="cscscsscccscsccsccsccsssccccscsccscc"
         inkscape:connector-curvature="0"
         id="path4935"
         style="font-style:normal;font-variant:normal;font-weight:normal;font-stretch:normal;font-family:NotCourierSans;-inkscape-font-specification:NotCourierSans;stroke-width:0.26458332"
         d="m 53.41837,110.01032 c 0.110244,-0.14814 0.254938,-0.22221 0.434082,-0.22221 0.265273,0 0.444418,0.15503 0.537435,0.46509 0.306614,0.27561 0.747586,0.41341 1.322917,0.41341 0.33762,0 0.62873,-0.0448 0.873331,-0.13436 0.244602,-0.093 0.366903,-0.19982 0.366903,-0.32039 0,-0.0689 -0.03273,-0.13781 -0.09819,-0.20671 -0.06546,-0.0689 -0.15331,-0.12402 -0.26355,-0.16536 -0.172254,-0.0689 -0.496093,-0.1292 -0.971517,-0.18087 -0.740695,-0.0792 -1.27813,-0.23082 -1.612305,-0.45475 -0.330728,-0.22393 -0.496093,-0.54433 -0.496093,-0.96119 0,-0.42375 0.203261,-0.7717 0.609782,-1.04386 0.409966,-0.27216 0.933621,-0.40824 1.570963,-0.40824 0.5271,0 0.981852,0.093 1.364258,0.27905 0.241157,0.11713 0.440972,0.26183 0.599446,0.43408 0.158475,0.16881 0.237712,0.34796 0.237712,0.53744 0,0.11024 -0.03101,0.22048 -0.09302,0.33072 -0.04479,0.0655 -0.10852,0.11714 -0.191202,0.15503 -0.07924,0.0379 -0.160197,0.0569 -0.24288,0.0569 -0.206705,0 -0.372069,-0.11024 -0.496093,-0.33073 l -0.05684,-0.093 c -0.285943,-0.20671 -0.649401,-0.31006 -1.090373,-0.31006 -0.268717,0 -0.509874,0.0379 -0.72347,0.11369 -0.213596,0.0758 -0.320394,0.16192 -0.320394,0.25838 0,0.10335 0.0913,0.18776 0.273885,0.25322 0.124024,0.0413 0.420302,0.0947 0.888835,0.16019 0.71658,0.093 1.228177,0.22738 1.53479,0.40308 0.230822,0.12747 0.411689,0.298 0.542602,0.5116 0.130914,0.21015 0.196371,0.43752 0.196371,0.68213 0,0.43408 -0.222208,0.79237 -0.666626,1.07487 -0.444417,0.27905 -1.00769,0.41858 -1.68982,0.41858 -0.57533,0 -1.098985,-0.10335 -1.570963,-0.31006 -0.251492,-0.11025 -0.45992,-0.26872 -0.625285,-0.47543 -0.165364,-0.21015 -0.248047,-0.41513 -0.248047,-0.61495 0,-0.12057 0.03445,-0.22565 0.103353,-0.31522 z" />
      <path
         sodipodi:nodetypes="cscscsscccscsccsccsccsssccccscsccscc"
         inkscape:connector-curvature="0"
         id="path4937"
         style="font-style:normal;font-variant:normal;font-weight:normal;font-stretch:normal;font-family:NotCourierSans;-inkscape-font-specification:NotCourierSans;stroke-width:0.26458332"
         d="m 59.764236,110.01032 c 0.110244,-0.14814 0.254938,-0.22221 0.434082,-0.22221 0.265273,0 0.444418,0.15503 0.537435,0.46509 0.306614,0.27561 0.747586,0.41341 1.322917,0.41341 0.33762,0 0.62873,-0.0448 0.873332,-0.13436 0.244602,-0.093 0.366902,-0.19982 0.366902,-0.32039 0,-0.0689 -0.03273,-0.13781 -0.09819,-0.20671 -0.06546,-0.0689 -0.15331,-0.12402 -0.26355,-0.16536 -0.172254,-0.0689 -0.496093,-0.1292 -0.971517,-0.18087 -0.740695,-0.0792 -1.27813,-0.23082 -1.612304,-0.45475 -0.330729,-0.22393 -0.496094,-0.54433 -0.496094,-0.96119 0,-0.42375 0.203261,-0.7717 0.609782,-1.04386 0.409966,-0.27216 0.933621,-0.40824 1.570963,-0.40824 0.5271,0 0.981853,0.093 1.364258,0.27905 0.241157,0.11713 0.440973,0.26183 0.599447,0.43408 0.158474,0.16881 0.237711,0.34796 0.237711,0.53744 0,0.11024 -0.03101,0.22048 -0.09302,0.33072 -0.04479,0.0655 -0.108521,0.11714 -0.191203,0.15503 -0.07924,0.0379 -0.160197,0.0569 -0.242879,0.0569 -0.206706,0 -0.37207,-0.11024 -0.496094,-0.33073 l -0.05684,-0.093 c -0.285943,-0.20671 -0.649401,-0.31006 -1.090373,-0.31006 -0.268717,0 -0.509874,0.0379 -0.72347,0.11369 -0.213596,0.0758 -0.320394,0.16192 -0.320394,0.25838 0,0.10335 0.0913,0.18776 0.273885,0.25322 0.124024,0.0413 0.420302,0.0947 0.888835,0.16019 0.71658,0.093 1.228177,0.22738 1.53479,0.40308 0.230822,0.12747 0.411689,0.298 0.542602,0.5116 0.130914,0.21015 0.196371,0.43752 0.196371,0.68213 0,0.43408 -0.222208,0.79237 -0.666626,1.07487 -0.444417,0.27905 -1.00769,0.41858 -1.689819,0.41858 -0.575331,0 -1.098986,-0.10335 -1.570964,-0.31006 -0.251492,-0.11025 -0.45992,-0.26872 -0.625285,-0.47543 -0.165364,-0.21015 -0.248047,-0.41513 -0.248047,-0.61495 0,-0.12057 0.03445,-0.22565 0.103353,-0.31522 z" />
      <path
         sodipodi:nodetypes="sscscsscsss"
         inkscape:connector-curvature="0"
         id="path4939"
         style="font-style:normal;font-variant:normal;font-weight:normal;font-stretch:normal;font-family:NotCourierSans;-inkscape-font-specification:NotCourierSans;stroke-width:0.26458332"
         d="m 67.973553,110.12814 h -0.191202 c -0.192925,0 -0.35829,-0.0672 -0.496094,-0.20154 -0.134359,-0.1378 -0.201538,-0.30317 -0.201538,-0.49609 0,-0.19293 0.0689,-0.3583 0.206705,-0.4961 0.137804,-0.1378 0.301446,-0.2067 0.490927,-0.2067 h 0.191202 c 0.196371,0 0.361735,0.0689 0.496094,0.2067 0.134359,0.13436 0.201538,0.29972 0.201538,0.4961 0,0.19636 -0.06718,0.36173 -0.201538,0.49609 -0.134359,0.13436 -0.299723,0.20154 -0.496094,0.20154 z" />
      <path
         sodipodi:nodetypes="ccscscsccc"
         inkscape:connector-curvature="0"
         id="path4941"
         style="font-style:normal;font-variant:normal;font-weight:normal;font-stretch:normal;font-family:NotCourierSans;-inkscape-font-specification:NotCourierSans;stroke-width:0.26458332"
         d="m 71.577468,111.55544 v -5.54488 h -0.826823 c -0.241157,0 -0.403077,-0.0362 -0.485759,-0.10852 -0.148139,-0.093 -0.222208,-0.23427 -0.222208,-0.42375 0,-0.2067 0.0844,-0.35828 0.253214,-0.45475 0.07235,-0.0483 0.223931,-0.0724 0.454753,-0.0724 h 1.88619 v 6.60425 z" />
      <path
         sodipodi:nodetypes="ccccccccccccc"
         inkscape:connector-curvature="0"
         id="path4943"
         style="font-style:normal;font-variant:normal;font-weight:normal;font-stretch:normal;font-family:NotCourierSans;-inkscape-font-specification:NotCourierSans;stroke-width:0.26458332"
         d="m 79.880838,111.55544 h -1.596802 l -2.129069,-1.88619 -0.191202,0.14986 v 1.73633 h -1.0542 v -6.60425 h 1.0542 v 3.56568 l 1.989542,-1.58647 h 1.565796 l -2.537313,2.07223 z" />
    </g>
    <text
       id="text4951"
       y="90.52359"
       x="13.513554"
       style="font-style:normal;font-variant:normal;font-weight:bold;font-stretch:normal;font-size:3.82334709px;line-height:1.25;font-family:'Space Mono';-inkscape-font-specification:'Space Mono Bold';letter-spacing:0px;word-spacing:0px;fill:#000000;fill-opacity:1;stroke:none;stroke-width:0.09558368"
       xml:space="preserve"><tspan
         style="font-style:normal;font-variant:normal;font-weight:bold;font-stretch:normal;font-size:3.0922389px;line-height:0;font-family:'Space Mono';-inkscape-font-specification:'Space Mono Bold';stroke-width:0.09558368"
         y="90.52359"
         x="13.513554"
         sodipodi:role="line"
         id="tspan4947">Free and Open Source Software Community </tspan><tspan
         id="tspan4949"
         style="font-style:normal;font-variant:normal;font-weight:bold;font-stretch:normal;font-size:1.78422868px;line-height:0;font-family:'Space Mono';-inkscape-font-specification:'Space Mono Bold';stroke-width:0.09558368"
         y="95.302773"
         x="13.513554"
         sodipodi:role="line" /></text>
    <text
       id="text4957"
       y="95.195984"
       x="13.437954"
       style="font-style:italic;font-variant:normal;font-weight:bold;font-stretch:normal;font-size:3.92567539px;line-height:1.25;font-family:'Space Mono';-inkscape-font-specification:'Space Mono Bold Italic';letter-spacing:0px;word-spacing:0px;fill:#000000;fill-opacity:1;stroke:none;stroke-width:0.09814189"
       xml:space="preserve"><tspan
         id="tspan4953"
         style="font-style:italic;font-variant:normal;font-weight:bold;font-stretch:normal;font-size:3.17499995px;line-height:0;font-family:'Space Mono';-inkscape-font-specification:'Space Mono Bold Italic';stroke-width:0.09814189"
         y="95.195984"
         x="13.437954"
         sodipodi:role="line">Sri Lanka_</tspan><tspan
         id="tspan4955"
         style="font-style:italic;font-variant:normal;font-weight:bold;font-stretch:normal;font-size:1.8319819px;line-height:0;font-family:'Space Mono';-inkscape-font-specification:'Space Mono Bold Italic';stroke-width:0.09814189"
         y="100.10308"
         x="13.437954"
         sodipodi:role="line" /></text>
    <flowRoot
       xml:space="preserve"
       id="flowRoot4965"
       style="font-style:normal;font-weight:normal;font-size:40px;line-height:1.25;font-family:sans-serif;letter-spacing:0px;word-spacing:0px;fill:#000000;fill-opacity:1;stroke:none"
       transform="matrix(0.41306164,0,0,0.41793939,77.93634,-45.729661)"><flowRegion
         id="flowRegion4961"><rect
           id="rect4959"
           width="648.57141"
           height="528.57141"
           x="105.71429"
           y="245.37683" /></flowRegion><flowPara
         id="flowPara4963"
         style="font-style:normal;font-variant:normal;font-weight:normal;font-stretch:normal;font-size:85.33333588px;font-family:flosslk;-inkscape-font-specification:flosslk">o</flowPara></flowRoot>    <g
       aria-label="f ss.lk"
       style="font-style:normal;font-weight:normal;font-size:10.58333302px;line-height:1.25;font-family:sans-serif;letter-spacing:0px;word-spacing:0px;fill:#000000;fill-opacity:1;stroke:none;stroke-width:0.26458332"
       id="g4979"
       transform="matrix(1.8795279,0,-0.16727798,1.8795279,60.596634,-124.41543)">
      <path
         d="m 41.952404,111.55544 h -1.054199 v -3.56567 h -0.501262 q -0.351399,0 -0.475423,-0.10852 -0.222208,-0.14986 -0.222208,-0.42375 0,-0.13952 0.06718,-0.26355 0.06718,-0.12402 0.186035,-0.1912 0.108521,-0.0724 0.454753,-0.0724 h 0.490926 v -0.39274 q 0,-0.72864 0.54777,-1.15238 0.54777,-0.42375 1.493449,-0.42375 0.335897,0 0.764811,0.0517 0.428914,0.0517 0.682129,0.11885 0.444417,0.11369 0.444417,0.4961 0,0.22737 -0.144694,0.38757 -0.144694,0.15503 -0.3514,0.15503 -0.06718,0 -0.294555,-0.0362 -0.661459,-0.11369 -1.198893,-0.11369 -0.888835,0 -0.888835,0.51676 v 0.39274 h 1.601969 q 0.341065,0 0.475423,0.093 0.222209,0.16536 0.222209,0.43408 0,0.28939 -0.253214,0.45475 -0.124024,0.0775 -0.444418,0.0775 h -1.601969 z"
         style="font-style:normal;font-variant:normal;font-weight:normal;font-stretch:normal;font-family:NotCourierSans;-inkscape-font-specification:NotCourierSans;stroke-width:0.26458332"
         id="path4967"
         inkscape:connector-curvature="0" />
      <path
         d="m 53.41837,110.01032 c 0.110244,-0.14814 0.254938,-0.22221 0.434082,-0.22221 0.265273,0 0.444418,0.15503 0.537435,0.46509 0.306614,0.27561 0.747586,0.41341 1.322917,0.41341 0.33762,0 0.62873,-0.0448 0.873331,-0.13436 0.244602,-0.093 0.366903,-0.19982 0.366903,-0.32039 0,-0.0689 -0.03273,-0.13781 -0.09819,-0.20671 -0.06546,-0.0689 -0.15331,-0.12402 -0.26355,-0.16536 -0.172254,-0.0689 -0.496093,-0.1292 -0.971517,-0.18087 -0.740695,-0.0792 -1.27813,-0.23082 -1.612305,-0.45475 -0.330728,-0.22393 -0.496093,-0.54433 -0.496093,-0.96119 0,-0.42375 0.203261,-0.7717 0.609782,-1.04386 0.409966,-0.27216 0.933621,-0.40824 1.570963,-0.40824 0.5271,0 0.981852,0.093 1.364258,0.27905 0.241157,0.11713 0.440972,0.26183 0.599446,0.43408 0.158475,0.16881 0.237712,0.34796 0.237712,0.53744 0,0.11024 -0.03101,0.22048 -0.09302,0.33072 -0.04479,0.0655 -0.10852,0.11714 -0.191202,0.15503 -0.07924,0.0379 -0.160197,0.0569 -0.24288,0.0569 -0.206705,0 -0.372069,-0.11024 -0.496093,-0.33073 l -0.05684,-0.093 c -0.285943,-0.20671 -0.649401,-0.31006 -1.090373,-0.31006 -0.268717,0 -0.509874,0.0379 -0.72347,0.11369 -0.213596,0.0758 -0.320394,0.16192 -0.320394,0.25838 0,0.10335 0.0913,0.18776 0.273885,0.25322 0.124024,0.0413 0.420302,0.0947 0.888835,0.16019 0.71658,0.093 1.228177,0.22738 1.53479,0.40308 0.230822,0.12747 0.411689,0.298 0.542602,0.5116 0.130914,0.21015 0.196371,0.43752 0.196371,0.68213 0,0.43408 -0.222208,0.79237 -0.666626,1.07487 -0.444417,0.27905 -1.00769,0.41858 -1.68982,0.41858 -0.57533,0 -1.098985,-0.10335 -1.570963,-0.31006 -0.251492,-0.11025 -0.45992,-0.26872 -0.625285,-0.47543 -0.165364,-0.21015 -0.248047,-0.41513 -0.248047,-0.61495 0,-0.12057 0.03445,-0.22565 0.103353,-0.31522 z"
         style="font-style:normal;font-variant:normal;font-weight:normal;font-stretch:normal;font-family:NotCourierSans;-inkscape-font-specification:NotCourierSans;stroke-width:0.26458332"
         id="path4969"
         inkscape:connector-curvature="0"
         sodipodi:nodetypes="cscscsscccscsccsccsccsssccccscsccscc" />
      <path
         d="m 59.764236,110.01032 c 0.110244,-0.14814 0.254938,-0.22221 0.434082,-0.22221 0.265273,0 0.444418,0.15503 0.537435,0.46509 0.306614,0.27561 0.747586,0.41341 1.322917,0.41341 0.33762,0 0.62873,-0.0448 0.873332,-0.13436 0.244602,-0.093 0.366902,-0.19982 0.366902,-0.32039 0,-0.0689 -0.03273,-0.13781 -0.09819,-0.20671 -0.06546,-0.0689 -0.15331,-0.12402 -0.26355,-0.16536 -0.172254,-0.0689 -0.496093,-0.1292 -0.971517,-0.18087 -0.740695,-0.0792 -1.27813,-0.23082 -1.612304,-0.45475 -0.330729,-0.22393 -0.496094,-0.54433 -0.496094,-0.96119 0,-0.42375 0.203261,-0.7717 0.609782,-1.04386 0.409966,-0.27216 0.933621,-0.40824 1.570963,-0.40824 0.5271,0 0.981853,0.093 1.364258,0.27905 0.241157,0.11713 0.440973,0.26183 0.599447,0.43408 0.158474,0.16881 0.237711,0.34796 0.237711,0.53744 0,0.11024 -0.03101,0.22048 -0.09302,0.33072 -0.04479,0.0655 -0.108521,0.11714 -0.191203,0.15503 -0.07924,0.0379 -0.160197,0.0569 -0.242879,0.0569 -0.206706,0 -0.37207,-0.11024 -0.496094,-0.33073 l -0.05684,-0.093 c -0.285943,-0.20671 -0.649401,-0.31006 -1.090373,-0.31006 -0.268717,0 -0.509874,0.0379 -0.72347,0.11369 -0.213596,0.0758 -0.320394,0.16192 -0.320394,0.25838 0,0.10335 0.0913,0.18776 0.273885,0.25322 0.124024,0.0413 0.420302,0.0947 0.888835,0.16019 0.71658,0.093 1.228177,0.22738 1.53479,0.40308 0.230822,0.12747 0.411689,0.298 0.542602,0.5116 0.130914,0.21015 0.196371,0.43752 0.196371,0.68213 0,0.43408 -0.222208,0.79237 -0.666626,1.07487 -0.444417,0.27905 -1.00769,0.41858 -1.689819,0.41858 -0.575331,0 -1.098986,-0.10335 -1.570964,-0.31006 -0.251492,-0.11025 -0.45992,-0.26872 -0.625285,-0.47543 -0.165364,-0.21015 -0.248047,-0.41513 -0.248047,-0.61495 0,-0.12057 0.03445,-0.22565 0.103353,-0.31522 z"
         style="font-style:normal;font-variant:normal;font-weight:normal;font-stretch:normal;font-family:NotCourierSans;-inkscape-font-specification:NotCourierSans;stroke-width:0.26458332"
         id="path4971"
         inkscape:connector-curvature="0"
         sodipodi:nodetypes="cscscsscccscsccsccsccsssccccscsccscc" />
      <path
         d="m 67.973553,110.12814 h -0.191202 c -0.192925,0 -0.35829,-0.0672 -0.496094,-0.20154 -0.134359,-0.1378 -0.201538,-0.30317 -0.201538,-0.49609 0,-0.19293 0.0689,-0.3583 0.206705,-0.4961 0.137804,-0.1378 0.301446,-0.2067 0.490927,-0.2067 h 0.191202 c 0.196371,0 0.361735,0.0689 0.496094,0.2067 0.134359,0.13436 0.201538,0.29972 0.201538,0.4961 0,0.19636 -0.06718,0.36173 -0.201538,0.49609 -0.134359,0.13436 -0.299723,0.20154 -0.496094,0.20154 z"
         style="font-style:normal;font-variant:normal;font-weight:normal;font-stretch:normal;font-family:NotCourierSans;-inkscape-font-specification:NotCourierSans;stroke-width:0.26458332"
         id="path4973"
         inkscape:connector-curvature="0"
         sodipodi:nodetypes="sscscsscsss" />
      <path
         d="m 71.577468,111.55544 v -5.54488 h -0.826823 c -0.241157,0 -0.403077,-0.0362 -0.485759,-0.10852 -0.148139,-0.093 -0.222208,-0.23427 -0.222208,-0.42375 0,-0.2067 0.0844,-0.35828 0.253214,-0.45475 0.07235,-0.0483 0.223931,-0.0724 0.454753,-0.0724 h 1.88619 v 6.60425 z"
         style="font-style:normal;font-variant:normal;font-weight:normal;font-stretch:normal;font-family:NotCourierSans;-inkscape-font-specification:NotCourierSans;stroke-width:0.26458332"
         id="path4975"
         inkscape:connector-curvature="0"
         sodipodi:nodetypes="ccscscsccc" />
      <path
         d="m 79.880838,111.55544 h -1.596802 l -2.129069,-1.88619 -0.191202,0.14986 v 1.73633 h -1.0542 v -6.60425 h 1.0542 v 3.56568 l 1.989542,-1.58647 h 1.565796 l -2.537313,2.07223 z"
         style="font-style:normal;font-variant:normal;font-weight:normal;font-stretch:normal;font-family:NotCourierSans;-inkscape-font-specification:NotCourierSans;stroke-width:0.26458332"
         id="path4977"
         inkscape:connector-curvature="0"
         sodipodi:nodetypes="ccccccccccccc" />
    </g>
    <flowRoot
       transform="matrix(0.41306164,0,0,0.41793939,76.802411,-99.024307)"
       style="font-style:normal;font-weight:normal;font-size:40px;line-height:1.25;font-family:sans-serif;letter-spacing:0px;word-spacing:0px;fill:#000000;fill-opacity:1;stroke:none"
       id="flowRoot4999"
       xml:space="preserve"><flowRegion
         id="flowRegion4995"><rect
           y="245.37683"
           x="105.71429"
           height="528.57141"
           width="648.57141"
           id="rect4993" /></flowRegion><flowPara
         style="font-style:normal;font-variant:normal;font-weight:normal;font-stretch:normal;font-size:85.33333588px;font-family:flosslk;-inkscape-font-specification:flosslk"
         id="flowPara4997">o</flowPara></flowRoot>    <g
       transform="matrix(1.8795279,0,0,1.8795279,41.340043,-177.71009)"
       id="g5013"
       style="font-style:normal;font-weight:normal;font-size:10.58333302px;line-height:1.25;font-family:sans-serif;letter-spacing:0px;word-spacing:0px;fill:#000000;fill-opacity:1;stroke:none;stroke-width:0.26458332"
       aria-label="f ss.lk">
      <path
         inkscape:connector-curvature="0"
         id="path5001"
         style="font-style:normal;font-variant:normal;font-weight:normal;font-stretch:normal;font-family:NotCourierSans;-inkscape-font-specification:NotCourierSans;stroke-width:0.26458332"
         d="m 41.952404,111.55544 h -1.054199 v -3.56567 h -0.501262 q -0.351399,0 -0.475423,-0.10852 -0.222208,-0.14986 -0.222208,-0.42375 0,-0.13952 0.06718,-0.26355 0.06718,-0.12402 0.186035,-0.1912 0.108521,-0.0724 0.454753,-0.0724 h 0.490926 v -0.39274 q 0,-0.72864 0.54777,-1.15238 0.54777,-0.42375 1.493449,-0.42375 0.335897,0 0.764811,0.0517 0.428914,0.0517 0.682129,0.11885 0.444417,0.11369 0.444417,0.4961 0,0.22737 -0.144694,0.38757 -0.144694,0.15503 -0.3514,0.15503 -0.06718,0 -0.294555,-0.0362 -0.661459,-0.11369 -1.198893,-0.11369 -0.888835,0 -0.888835,0.51676 v 0.39274 h 1.601969 q 0.341065,0 0.475423,0.093 0.222209,0.16536 0.222209,0.43408 0,0.28939 -0.253214,0.45475 -0.124024,0.0775 -0.444418,0.0775 h -1.601969 z" />
      <path
         sodipodi:nodetypes="cscscsscccscsccsccsccsssccccscsccscc"
         inkscape:connector-curvature="0"
         id="path5003"
         style="font-style:normal;font-variant:normal;font-weight:normal;font-stretch:normal;font-family:NotCourierSans;-inkscape-font-specification:NotCourierSans;stroke-width:0.26458332"
         d="m 53.41837,110.01032 c 0.110244,-0.14814 0.254938,-0.22221 0.434082,-0.22221 0.265273,0 0.444418,0.15503 0.537435,0.46509 0.306614,0.27561 0.747586,0.41341 1.322917,0.41341 0.33762,0 0.62873,-0.0448 0.873331,-0.13436 0.244602,-0.093 0.366903,-0.19982 0.366903,-0.32039 0,-0.0689 -0.03273,-0.13781 -0.09819,-0.20671 -0.06546,-0.0689 -0.15331,-0.12402 -0.26355,-0.16536 -0.172254,-0.0689 -0.496093,-0.1292 -0.971517,-0.18087 -0.740695,-0.0792 -1.27813,-0.23082 -1.612305,-0.45475 -0.330728,-0.22393 -0.496093,-0.54433 -0.496093,-0.96119 0,-0.42375 0.203261,-0.7717 0.609782,-1.04386 0.409966,-0.27216 0.933621,-0.40824 1.570963,-0.40824 0.5271,0 0.981852,0.093 1.364258,0.27905 0.241157,0.11713 0.440972,0.26183 0.599446,0.43408 0.158475,0.16881 0.237712,0.34796 0.237712,0.53744 0,0.11024 -0.03101,0.22048 -0.09302,0.33072 -0.04479,0.0655 -0.10852,0.11714 -0.191202,0.15503 -0.07924,0.0379 -0.160197,0.0569 -0.24288,0.0569 -0.206705,0 -0.372069,-0.11024 -0.496093,-0.33073 l -0.05684,-0.093 c -0.285943,-0.20671 -0.649401,-0.31006 -1.090373,-0.31006 -0.268717,0 -0.509874,0.0379 -0.72347,0.11369 -0.213596,0.0758 -0.320394,0.16192 -0.320394,0.25838 0,0.10335 0.0913,0.18776 0.273885,0.25322 0.124024,0.0413 0.420302,0.0947 0.888835,0.16019 0.71658,0.093 1.228177,0.22738 1.53479,0.40308 0.230822,0.12747 0.411689,0.298 0.542602,0.5116 0.130914,0.21015 0.196371,0.43752 0.196371,0.68213 0,0.43408 -0.222208,0.79237 -0.666626,1.07487 -0.444417,0.27905 -1.00769,0.41858 -1.68982,0.41858 -0.57533,0 -1.098985,-0.10335 -1.570963,-0.31006 -0.251492,-0.11025 -0.45992,-0.26872 -0.625285,-0.47543 -0.165364,-0.21015 -0.248047,-0.41513 -0.248047,-0.61495 0,-0.12057 0.03445,-0.22565 0.103353,-0.31522 z" />
      <path
         sodipodi:nodetypes="cscscsscccscsccsccsccsssccccscsccscc"
         inkscape:connector-curvature="0"
         id="path5005"
         style="font-style:normal;font-variant:normal;font-weight:normal;font-stretch:normal;font-family:NotCourierSans;-inkscape-font-specification:NotCourierSans;stroke-width:0.26458332"
         d="m 59.764236,110.01032 c 0.110244,-0.14814 0.254938,-0.22221 0.434082,-0.22221 0.265273,0 0.444418,0.15503 0.537435,0.46509 0.306614,0.27561 0.747586,0.41341 1.322917,0.41341 0.33762,0 0.62873,-0.0448 0.873332,-0.13436 0.244602,-0.093 0.366902,-0.19982 0.366902,-0.32039 0,-0.0689 -0.03273,-0.13781 -0.09819,-0.20671 -0.06546,-0.0689 -0.15331,-0.12402 -0.26355,-0.16536 -0.172254,-0.0689 -0.496093,-0.1292 -0.971517,-0.18087 -0.740695,-0.0792 -1.27813,-0.23082 -1.612304,-0.45475 -0.330729,-0.22393 -0.496094,-0.54433 -0.496094,-0.96119 0,-0.42375 0.203261,-0.7717 0.609782,-1.04386 0.409966,-0.27216 0.933621,-0.40824 1.570963,-0.40824 0.5271,0 0.981853,0.093 1.364258,0.27905 0.241157,0.11713 0.440973,0.26183 0.599447,0.43408 0.158474,0.16881 0.237711,0.34796 0.237711,0.53744 0,0.11024 -0.03101,0.22048 -0.09302,0.33072 -0.04479,0.0655 -0.108521,0.11714 -0.191203,0.15503 -0.07924,0.0379 -0.160197,0.0569 -0.242879,0.0569 -0.206706,0 -0.37207,-0.11024 -0.496094,-0.33073 l -0.05684,-0.093 c -0.285943,-0.20671 -0.649401,-0.31006 -1.090373,-0.31006 -0.268717,0 -0.509874,0.0379 -0.72347,0.11369 -0.213596,0.0758 -0.320394,0.16192 -0.320394,0.25838 0,0.10335 0.0913,0.18776 0.273885,0.25322 0.124024,0.0413 0.420302,0.0947 0.888835,0.16019 0.71658,0.093 1.228177,0.22738 1.53479,0.40308 0.230822,0.12747 0.411689,0.298 0.542602,0.5116 0.130914,0.21015 0.196371,0.43752 0.196371,0.68213 0,0.43408 -0.222208,0.79237 -0.666626,1.07487 -0.444417,0.27905 -1.00769,0.41858 -1.689819,0.41858 -0.575331,0 -1.098986,-0.10335 -1.570964,-0.31006 -0.251492,-0.11025 -0.45992,-0.26872 -0.625285,-0.47543 -0.165364,-0.21015 -0.248047,-0.41513 -0.248047,-0.61495 0,-0.12057 0.03445,-0.22565 0.103353,-0.31522 z" />
      <path
         sodipodi:nodetypes="sscscsscsss"
         inkscape:connector-curvature="0"
         id="path5007"
         style="font-style:normal;font-variant:normal;font-weight:normal;font-stretch:normal;font-family:NotCourierSans;-inkscape-font-specification:NotCourierSans;stroke-width:0.26458332"
         d="m 67.973553,110.12814 h -0.191202 c -0.192925,0 -0.35829,-0.0672 -0.496094,-0.20154 -0.134359,-0.1378 -0.201538,-0.30317 -0.201538,-0.49609 0,-0.19293 0.0689,-0.3583 0.206705,-0.4961 0.137804,-0.1378 0.301446,-0.2067 0.490927,-0.2067 h 0.191202 c 0.196371,0 0.361735,0.0689 0.496094,0.2067 0.134359,0.13436 0.201538,0.29972 0.201538,0.4961 0,0.19636 -0.06718,0.36173 -0.201538,0.49609 -0.134359,0.13436 -0.299723,0.20154 -0.496094,0.20154 z" />
      <path
         sodipodi:nodetypes="ccscscsccc"
         inkscape:connector-curvature="0"
         id="path5009"
         style="font-style:normal;font-variant:normal;font-weight:normal;font-stretch:normal;font-family:NotCourierSans;-inkscape-font-specification:NotCourierSans;stroke-width:0.26458332"
         d="m 71.577468,111.55544 v -5.54488 h -0.826823 c -0.241157,0 -0.403077,-0.0362 -0.485759,-0.10852 -0.148139,-0.093 -0.222208,-0.23427 -0.222208,-0.42375 0,-0.2067 0.0844,-0.35828 0.253214,-0.45475 0.07235,-0.0483 0.223931,-0.0724 0.454753,-0.0724 h 1.88619 v 6.60425 z" />
      <path
         sodipodi:nodetypes="ccccccccccccc"
         inkscape:connector-curvature="0"
         id="path5011"
         style="font-style:normal;font-variant:normal;font-weight:normal;font-stretch:normal;font-family:NotCourierSans;-inkscape-font-specification:NotCourierSans;stroke-width:0.26458332"
         d="m 79.880838,111.55544 h -1.596802 l -2.129069,-1.88619 -0.191202,0.14986 v 1.73633 h -1.0542 v -6.60425 h 1.0542 v 3.56568 l 1.989542,-1.58647 h 1.565796 l -2.537313,2.07223 z" />
    </g>
    <flowRoot
       xml:space="preserve"
       id="flowRoot5033"
       style="font-style:normal;font-weight:normal;font-size:40px;line-height:1.25;font-family:sans-serif;letter-spacing:0px;word-spacing:0px;fill:#000000;fill-opacity:1;stroke:none"
       transform="matrix(0.47006828,0,0,0.47561921,71.518025,3.5343721)"><flowRegion
         id="flowRegion5029"><rect
           id="rect5027"
           width="648.57141"
           height="528.57141"
           x="105.71429"
           y="245.37683" /></flowRegion><flowPara
         id="flowPara5031"
         style="font-style:normal;font-variant:normal;font-weight:normal;font-stretch:normal;font-size:85.33333588px;font-family:flosslk;-inkscape-font-specification:flosslk">o</flowPara></flowRoot>    <g
       id="g5047"
       style="font-style:normal;font-weight:normal;font-size:13.54167175px;line-height:1.25;font-family:sans-serif;letter-spacing:0px;word-spacing:0px;fill:#000000;fill-opacity:1;stroke:none;stroke-width:0.33854181"
       transform="matrix(1.3711047,0,-0.13917992,1.3711047,54.690876,-71.090699)"
       aria-label="f  ss.lk">
      <path
         inkscape:connector-curvature="0"
         id="path5035"
         style="font-style:normal;font-variant:normal;font-weight:bold;font-stretch:normal;font-family:'Space Mono';-inkscape-font-specification:'Space Mono Bold';stroke-width:0.33854181"
         d="m 62.297815,155.71576 h 1.909375 v -1.38125 q 0,-0.58229 0.392709,-0.975 0.392708,-0.40625 0.975,-0.40625 h 2.735418 v 1.625 h -2.031251 q -0.365625,0 -0.365625,0.40625 v 0.73125 h 2.640626 v 1.62501 h -2.640626 v 5.09166 H 64.20719 v -5.09166 h -1.909375 z" />
      <path
         inkscape:connector-curvature="0"
         id="path5037"
         style="font-style:normal;font-variant:normal;font-weight:bold;font-stretch:normal;font-family:'Space Mono';-inkscape-font-specification:'Space Mono Bold';stroke-width:0.33854181"
         d="m 84.135672,157.6116 q 0,0.325 0.338542,0.47396 0.338542,0.13541 1.232292,0.23021 1.029167,0.10833 1.679167,0.62291 0.650001,0.50104 0.650001,1.40834 v 0.0813 q 0,1.00208 -0.731251,1.59791 -0.73125,0.59584 -2.058334,0.59584 -0.785417,0 -1.340625,-0.20313 -0.555209,-0.20312 -0.920834,-0.50104 -0.365625,-0.31146 -0.56875,-0.67708 -0.189584,-0.37917 -0.257292,-0.73125 l 1.570834,-0.51459 q 0.108333,0.43334 0.446875,0.75834 0.352084,0.325 1.069792,0.325 0.636459,0 0.866667,-0.18959 0.24375,-0.20312 0.24375,-0.43333 0,-0.13542 -0.06771,-0.24375 -0.05417,-0.12188 -0.216667,-0.21667 -0.1625,-0.10833 -0.446875,-0.17604 -0.270833,-0.0677 -0.690625,-0.10833 -1.137501,-0.0948 -1.814584,-0.58229 -0.663542,-0.50105 -0.663542,-1.4625 v -0.0813 q 0,-0.50105 0.216667,-0.88021 0.216666,-0.37917 0.56875,-0.63646 0.352083,-0.27084 0.8125,-0.40625 0.460417,-0.13542 0.947917,-0.13542 0.636459,0 1.096876,0.1625 0.473958,0.14896 0.798958,0.40625 0.325,0.24375 0.528125,0.55521 0.203125,0.29792 0.311459,0.58229 l -1.543751,0.62292 q -0.121875,-0.36563 -0.419792,-0.56875 -0.297916,-0.21667 -0.771875,-0.21667 -0.433333,0 -0.65,0.1625 -0.216667,0.14896 -0.216667,0.37917 z" />
      <path
         inkscape:connector-curvature="0"
         id="path5039"
         style="font-style:normal;font-variant:normal;font-weight:bold;font-stretch:normal;font-family:'Space Mono';-inkscape-font-specification:'Space Mono Bold';stroke-width:0.33854181"
         d="m 92.414076,157.6116 q 0,0.325 0.338542,0.47396 0.338542,0.13541 1.232292,0.23021 1.029167,0.10833 1.679168,0.62291 0.65,0.50104 0.65,1.40834 v 0.0813 q 0,1.00208 -0.73125,1.59791 -0.731251,0.59584 -2.058335,0.59584 -0.785417,0 -1.340625,-0.20313 -0.555209,-0.20312 -0.920834,-0.50104 -0.365625,-0.31146 -0.56875,-0.67708 -0.189583,-0.37917 -0.257292,-0.73125 l 1.570834,-0.51459 q 0.108334,0.43334 0.446875,0.75834 0.352084,0.325 1.069792,0.325 0.636459,0 0.866667,-0.18959 0.243751,-0.20312 0.243751,-0.43333 0,-0.13542 -0.06771,-0.24375 -0.05417,-0.12188 -0.216667,-0.21667 -0.1625,-0.10833 -0.446875,-0.17604 -0.270833,-0.0677 -0.690625,-0.10833 -1.1375,-0.0948 -1.814584,-0.58229 -0.663542,-0.50105 -0.663542,-1.4625 v -0.0813 q 0,-0.50105 0.216667,-0.88021 0.216667,-0.37917 0.56875,-0.63646 0.352083,-0.27084 0.8125,-0.40625 0.460417,-0.13542 0.947917,-0.13542 0.636459,0 1.096876,0.1625 0.473958,0.14896 0.798958,0.40625 0.325001,0.24375 0.528126,0.55521 0.203125,0.29792 0.311458,0.58229 l -1.543751,0.62292 q -0.121875,-0.36563 -0.419791,-0.56875 -0.297917,-0.21667 -0.771876,-0.21667 -0.433333,0 -0.65,0.1625 -0.216667,0.14896 -0.216666,0.37917 z" />
      <path
         inkscape:connector-curvature="0"
         id="path5041"
         style="font-style:normal;font-variant:normal;font-weight:bold;font-stretch:normal;font-family:'Space Mono';-inkscape-font-specification:'Space Mono Bold';stroke-width:0.33854181"
         d="m 101.4309,159.57872 q 0,0.27083 -0.10833,0.51458 -0.0948,0.23021 -0.27083,0.40625 -0.17605,0.1625 -0.4198,0.25729 -0.2302,0.10834 -0.4875,0.10834 -0.270826,0 -0.501036,-0.10834 -0.230206,-0.0948 -0.406246,-0.25729 -0.176036,-0.17604 -0.284366,-0.40625 -0.0948,-0.24375 -0.0948,-0.51458 0,-0.27083 0.0948,-0.50104 0.10833,-0.24375 0.284366,-0.40625 0.17604,-0.17605 0.406246,-0.27084 0.23021,-0.10833 0.501036,-0.10833 0.2573,0 0.4875,0.10833 0.24375,0.0948 0.4198,0.27084 0.17604,0.1625 0.27083,0.40625 0.10833,0.23021 0.10833,0.50104 z" />
      <path
         inkscape:connector-curvature="0"
         id="path5043"
         style="font-style:normal;font-variant:normal;font-weight:bold;font-stretch:normal;font-family:'Space Mono';-inkscape-font-specification:'Space Mono Bold';stroke-width:0.33854181"
         d="m 104.15542,160.80743 h 2.35625 v -6.22917 h -2.275 v -1.625 h 3.98125 v 7.85417 h 2.19375 v 1.625 h -6.25625 z" />
      <path
         inkscape:connector-curvature="0"
         id="path5045"
         style="font-style:normal;font-variant:normal;font-weight:bold;font-stretch:normal;font-family:'Space Mono';-inkscape-font-specification:'Space Mono Bold';stroke-width:0.33854181"
         d="m 113.84394,158.18035 h 0.325 l 1.7875,-2.46459 h 1.86875 v 0.0813 l -2.16666,3.07396 v 0.24375 l 2.38333,3.23646 v 0.0813 h -1.95 l -1.92292,-2.62708 h -0.325 v 2.62708 h -1.70625 v -9.47917 h 1.70625 z" />
    </g>
    <flowRoot
       xml:space="preserve"
       id="flowRoot5067"
       style="font-style:normal;font-weight:normal;font-size:40px;line-height:1.25;font-family:sans-serif;letter-spacing:0px;word-spacing:0px;fill:#000000;fill-opacity:1;stroke:none"
       transform="matrix(0.47006828,0,0,0.47561921,-34.882273,61.553719)"><flowRegion
         id="flowRegion5063"><rect
           id="rect5061"
           width="648.57141"
           height="528.57141"
           x="105.71429"
           y="245.37683" /></flowRegion><flowPara
         id="flowPara5065"
         style="font-style:normal;font-variant:normal;font-weight:normal;font-stretch:normal;font-size:85.33333588px;font-family:flosslk;-inkscape-font-specification:flosslk">o</flowPara></flowRoot>    <g
       id="g5081"
       style="font-style:normal;font-weight:normal;font-size:13.54167175px;line-height:1.25;font-family:sans-serif;letter-spacing:0px;word-spacing:0px;fill:#000000;fill-opacity:1;stroke:none;stroke-width:0.33854181"
       transform="matrix(1.3711047,0,-0.0171516,1.3711047,-70.963985,-13.071349)"
       aria-label="f  ss.lk">
      <path
         inkscape:connector-curvature="0"
         id="path5069"
         style="font-style:normal;font-variant:normal;font-weight:bold;font-stretch:normal;font-family:'Space Mono';-inkscape-font-specification:'Space Mono Bold';stroke-width:0.33854181"
         d="m 62.297815,155.71576 h 1.909375 v -1.38125 q 0,-0.58229 0.392709,-0.975 0.392708,-0.40625 0.975,-0.40625 h 2.735418 v 1.625 h -2.031251 q -0.365625,0 -0.365625,0.40625 v 0.73125 h 2.640626 v 1.62501 h -2.640626 v 5.09166 H 64.20719 v -5.09166 h -1.909375 z" />
      <path
         inkscape:connector-curvature="0"
         id="path5071"
         style="font-style:normal;font-variant:normal;font-weight:bold;font-stretch:normal;font-family:'Space Mono';-inkscape-font-specification:'Space Mono Bold';stroke-width:0.33854181"
         d="m 84.135672,157.6116 q 0,0.325 0.338542,0.47396 0.338542,0.13541 1.232292,0.23021 1.029167,0.10833 1.679167,0.62291 0.650001,0.50104 0.650001,1.40834 v 0.0813 q 0,1.00208 -0.731251,1.59791 -0.73125,0.59584 -2.058334,0.59584 -0.785417,0 -1.340625,-0.20313 -0.555209,-0.20312 -0.920834,-0.50104 -0.365625,-0.31146 -0.56875,-0.67708 -0.189584,-0.37917 -0.257292,-0.73125 l 1.570834,-0.51459 q 0.108333,0.43334 0.446875,0.75834 0.352084,0.325 1.069792,0.325 0.636459,0 0.866667,-0.18959 0.24375,-0.20312 0.24375,-0.43333 0,-0.13542 -0.06771,-0.24375 -0.05417,-0.12188 -0.216667,-0.21667 -0.1625,-0.10833 -0.446875,-0.17604 -0.270833,-0.0677 -0.690625,-0.10833 -1.137501,-0.0948 -1.814584,-0.58229 -0.663542,-0.50105 -0.663542,-1.4625 v -0.0813 q 0,-0.50105 0.216667,-0.88021 0.216666,-0.37917 0.56875,-0.63646 0.352083,-0.27084 0.8125,-0.40625 0.460417,-0.13542 0.947917,-0.13542 0.636459,0 1.096876,0.1625 0.473958,0.14896 0.798958,0.40625 0.325,0.24375 0.528125,0.55521 0.203125,0.29792 0.311459,0.58229 l -1.543751,0.62292 q -0.121875,-0.36563 -0.419792,-0.56875 -0.297916,-0.21667 -0.771875,-0.21667 -0.433333,0 -0.65,0.1625 -0.216667,0.14896 -0.216667,0.37917 z" />
      <path
         inkscape:connector-curvature="0"
         id="path5073"
         style="font-style:normal;font-variant:normal;font-weight:bold;font-stretch:normal;font-family:'Space Mono';-inkscape-font-specification:'Space Mono Bold';stroke-width:0.33854181"
         d="m 92.414076,157.6116 q 0,0.325 0.338542,0.47396 0.338542,0.13541 1.232292,0.23021 1.029167,0.10833 1.679168,0.62291 0.65,0.50104 0.65,1.40834 v 0.0813 q 0,1.00208 -0.73125,1.59791 -0.731251,0.59584 -2.058335,0.59584 -0.785417,0 -1.340625,-0.20313 -0.555209,-0.20312 -0.920834,-0.50104 -0.365625,-0.31146 -0.56875,-0.67708 -0.189583,-0.37917 -0.257292,-0.73125 l 1.570834,-0.51459 q 0.108334,0.43334 0.446875,0.75834 0.352084,0.325 1.069792,0.325 0.636459,0 0.866667,-0.18959 0.243751,-0.20312 0.243751,-0.43333 0,-0.13542 -0.06771,-0.24375 -0.05417,-0.12188 -0.216667,-0.21667 -0.1625,-0.10833 -0.446875,-0.17604 -0.270833,-0.0677 -0.690625,-0.10833 -1.1375,-0.0948 -1.814584,-0.58229 -0.663542,-0.50105 -0.663542,-1.4625 v -0.0813 q 0,-0.50105 0.216667,-0.88021 0.216667,-0.37917 0.56875,-0.63646 0.352083,-0.27084 0.8125,-0.40625 0.460417,-0.13542 0.947917,-0.13542 0.636459,0 1.096876,0.1625 0.473958,0.14896 0.798958,0.40625 0.325001,0.24375 0.528126,0.55521 0.203125,0.29792 0.311458,0.58229 l -1.543751,0.62292 q -0.121875,-0.36563 -0.419791,-0.56875 -0.297917,-0.21667 -0.771876,-0.21667 -0.433333,0 -0.65,0.1625 -0.216667,0.14896 -0.216666,0.37917 z" />
      <path
         inkscape:connector-curvature="0"
         id="path5075"
         style="font-style:normal;font-variant:normal;font-weight:bold;font-stretch:normal;font-family:'Space Mono';-inkscape-font-specification:'Space Mono Bold';stroke-width:0.33854181"
         d="m 101.4309,159.57872 q 0,0.27083 -0.10833,0.51458 -0.0948,0.23021 -0.27083,0.40625 -0.17605,0.1625 -0.4198,0.25729 -0.2302,0.10834 -0.4875,0.10834 -0.270826,0 -0.501036,-0.10834 -0.230206,-0.0948 -0.406246,-0.25729 -0.176036,-0.17604 -0.284366,-0.40625 -0.0948,-0.24375 -0.0948,-0.51458 0,-0.27083 0.0948,-0.50104 0.10833,-0.24375 0.284366,-0.40625 0.17604,-0.17605 0.406246,-0.27084 0.23021,-0.10833 0.501036,-0.10833 0.2573,0 0.4875,0.10833 0.24375,0.0948 0.4198,0.27084 0.17604,0.1625 0.27083,0.40625 0.10833,0.23021 0.10833,0.50104 z" />
      <path
         inkscape:connector-curvature="0"
         id="path5077"
         style="font-style:normal;font-variant:normal;font-weight:bold;font-stretch:normal;font-family:'Space Mono';-inkscape-font-specification:'Space Mono Bold';stroke-width:0.33854181"
         d="m 104.15542,160.80743 h 2.35625 v -6.22917 h -2.275 v -1.625 h 3.98125 v 7.85417 h 2.19375 v 1.625 h -6.25625 z" />
      <path
         inkscape:connector-curvature="0"
         id="path5079"
         style="font-style:normal;font-variant:normal;font-weight:bold;font-stretch:normal;font-family:'Space Mono';-inkscape-font-specification:'Space Mono Bold';stroke-width:0.33854181"
         d="m 113.84394,158.18035 h 0.325 l 1.7875,-2.46459 h 1.86875 v 0.0813 l -2.16666,3.07396 v 0.24375 l 2.38333,3.23646 v 0.0813 h -1.95 l -1.92292,-2.62708 h -0.325 v 2.62708 h -1.70625 v -9.47917 h 1.70625 z" />
    </g>
    <text
       xml:space="preserve"
       style="font-style:normal;font-variant:normal;font-weight:bold;font-stretch:normal;font-size:3.82334709px;line-height:1.25;font-family:'Space Mono';-inkscape-font-specification:'Space Mono Bold';letter-spacing:0px;word-spacing:0px;fill:#000000;fill-opacity:1;stroke:none;stroke-width:0.09558368"
       x="12.379622"
       y="216.57867"
       id="text5087"><tspan
         id="tspan5083"
         sodipodi:role="line"
         x="12.379622"
         y="216.57867"
         style="font-style:normal;font-variant:normal;font-weight:bold;font-stretch:normal;font-size:3.0922389px;line-height:0;font-family:'Space Mono';-inkscape-font-specification:'Space Mono Bold';stroke-width:0.09558368">Free and Open Source Software Community </tspan><tspan
         sodipodi:role="line"
         x="12.379622"
         y="221.35786"
         style="font-style:normal;font-variant:normal;font-weight:bold;font-stretch:normal;font-size:1.78422868px;line-height:0;font-family:'Space Mono';-inkscape-font-specification:'Space Mono Bold';stroke-width:0.09558368"
         id="tspan5085" /></text>
    <text
       xml:space="preserve"
       style="font-style:italic;font-variant:normal;font-weight:bold;font-stretch:normal;font-size:3.92567539px;line-height:1.25;font-family:'Space Mono';-inkscape-font-specification:'Space Mono Bold Italic';letter-spacing:0px;word-spacing:0px;fill:#000000;fill-opacity:1;stroke:none;stroke-width:0.09814189"
       x="12.304015"
       y="221.25107"
       id="text5093"><tspan
         sodipodi:role="line"
         x="12.304015"
         y="221.25107"
         style="font-style:italic;font-variant:normal;font-weight:bold;font-stretch:normal;font-size:3.17499995px;line-height:0;font-family:'Space Mono';-inkscape-font-specification:'Space Mono Bold Italic';stroke-width:0.09814189"
         id="tspan5089">Sri Lanka_</tspan><tspan
         sodipodi:role="line"
         x="12.304015"
         y="226.15816"
         style="font-style:italic;font-variant:normal;font-weight:bold;font-stretch:normal;font-size:1.8319819px;line-height:0;font-family:'Space Mono';-inkscape-font-specification:'Space Mono Bold Italic';stroke-width:0.09814189"
         id="tspan5091" /></text>
    <flowRoot
       transform="matrix(0.47006828,0,0,0.47561921,72.084989,62.120683)"
       style="font-style:normal;font-weight:normal;font-size:40px;line-height:1.25;font-family:sans-serif;letter-spacing:0px;word-spacing:0px;fill:#000000;fill-opacity:1;stroke:none"
       id="flowRoot5101"
       xml:space="preserve"><flowRegion
         id="flowRegion5097"><rect
           y="245.37683"
           x="105.71429"
           height="528.57141"
           width="648.57141"
           id="rect5095" /></flowRegion><flowPara
         style="font-style:normal;font-variant:normal;font-weight:normal;font-stretch:normal;font-size:85.33333588px;font-family:flosslk;-inkscape-font-specification:flosslk"
         id="flowPara5099">o</flowPara></flowRoot>    <g
       aria-label="f  ss.lk"
       transform="matrix(1.3711047,0,-0.0171516,1.3711047,36.003277,-12.504389)"
       style="font-style:normal;font-weight:normal;font-size:13.54167175px;line-height:1.25;font-family:sans-serif;letter-spacing:0px;word-spacing:0px;fill:#000000;fill-opacity:1;stroke:none;stroke-width:0.33854181"
       id="g5115">
      <path
         d="m 62.297815,155.71576 h 1.909375 v -1.38125 q 0,-0.58229 0.392709,-0.975 0.392708,-0.40625 0.975,-0.40625 h 2.735418 v 1.625 h -2.031251 q -0.365625,0 -0.365625,0.40625 v 0.73125 h 2.640626 v 1.62501 h -2.640626 v 5.09166 H 64.20719 v -5.09166 h -1.909375 z"
         style="font-style:normal;font-variant:normal;font-weight:bold;font-stretch:normal;font-family:'Space Mono';-inkscape-font-specification:'Space Mono Bold';stroke-width:0.33854181"
         id="path5103"
         inkscape:connector-curvature="0" />
      <path
         d="m 84.135672,157.6116 q 0,0.325 0.338542,0.47396 0.338542,0.13541 1.232292,0.23021 1.029167,0.10833 1.679167,0.62291 0.650001,0.50104 0.650001,1.40834 v 0.0813 q 0,1.00208 -0.731251,1.59791 -0.73125,0.59584 -2.058334,0.59584 -0.785417,0 -1.340625,-0.20313 -0.555209,-0.20312 -0.920834,-0.50104 -0.365625,-0.31146 -0.56875,-0.67708 -0.189584,-0.37917 -0.257292,-0.73125 l 1.570834,-0.51459 q 0.108333,0.43334 0.446875,0.75834 0.352084,0.325 1.069792,0.325 0.636459,0 0.866667,-0.18959 0.24375,-0.20312 0.24375,-0.43333 0,-0.13542 -0.06771,-0.24375 -0.05417,-0.12188 -0.216667,-0.21667 -0.1625,-0.10833 -0.446875,-0.17604 -0.270833,-0.0677 -0.690625,-0.10833 -1.137501,-0.0948 -1.814584,-0.58229 -0.663542,-0.50105 -0.663542,-1.4625 v -0.0813 q 0,-0.50105 0.216667,-0.88021 0.216666,-0.37917 0.56875,-0.63646 0.352083,-0.27084 0.8125,-0.40625 0.460417,-0.13542 0.947917,-0.13542 0.636459,0 1.096876,0.1625 0.473958,0.14896 0.798958,0.40625 0.325,0.24375 0.528125,0.55521 0.203125,0.29792 0.311459,0.58229 l -1.543751,0.62292 q -0.121875,-0.36563 -0.419792,-0.56875 -0.297916,-0.21667 -0.771875,-0.21667 -0.433333,0 -0.65,0.1625 -0.216667,0.14896 -0.216667,0.37917 z"
         style="font-style:normal;font-variant:normal;font-weight:bold;font-stretch:normal;font-family:'Space Mono';-inkscape-font-specification:'Space Mono Bold';stroke-width:0.33854181"
         id="path5105"
         inkscape:connector-curvature="0" />
      <path
         d="m 92.414076,157.6116 q 0,0.325 0.338542,0.47396 0.338542,0.13541 1.232292,0.23021 1.029167,0.10833 1.679168,0.62291 0.65,0.50104 0.65,1.40834 v 0.0813 q 0,1.00208 -0.73125,1.59791 -0.731251,0.59584 -2.058335,0.59584 -0.785417,0 -1.340625,-0.20313 -0.555209,-0.20312 -0.920834,-0.50104 -0.365625,-0.31146 -0.56875,-0.67708 -0.189583,-0.37917 -0.257292,-0.73125 l 1.570834,-0.51459 q 0.108334,0.43334 0.446875,0.75834 0.352084,0.325 1.069792,0.325 0.636459,0 0.866667,-0.18959 0.243751,-0.20312 0.243751,-0.43333 0,-0.13542 -0.06771,-0.24375 -0.05417,-0.12188 -0.216667,-0.21667 -0.1625,-0.10833 -0.446875,-0.17604 -0.270833,-0.0677 -0.690625,-0.10833 -1.1375,-0.0948 -1.814584,-0.58229 -0.663542,-0.50105 -0.663542,-1.4625 v -0.0813 q 0,-0.50105 0.216667,-0.88021 0.216667,-0.37917 0.56875,-0.63646 0.352083,-0.27084 0.8125,-0.40625 0.460417,-0.13542 0.947917,-0.13542 0.636459,0 1.096876,0.1625 0.473958,0.14896 0.798958,0.40625 0.325001,0.24375 0.528126,0.55521 0.203125,0.29792 0.311458,0.58229 l -1.543751,0.62292 q -0.121875,-0.36563 -0.419791,-0.56875 -0.297917,-0.21667 -0.771876,-0.21667 -0.433333,0 -0.65,0.1625 -0.216667,0.14896 -0.216666,0.37917 z"
         style="font-style:normal;font-variant:normal;font-weight:bold;font-stretch:normal;font-family:'Space Mono';-inkscape-font-specification:'Space Mono Bold';stroke-width:0.33854181"
         id="path5107"
         inkscape:connector-curvature="0" />
      <path
         d="m 101.4309,159.57872 q 0,0.27083 -0.10833,0.51458 -0.0948,0.23021 -0.27083,0.40625 -0.17605,0.1625 -0.4198,0.25729 -0.2302,0.10834 -0.4875,0.10834 -0.270826,0 -0.501036,-0.10834 -0.230206,-0.0948 -0.406246,-0.25729 -0.176036,-0.17604 -0.284366,-0.40625 -0.0948,-0.24375 -0.0948,-0.51458 0,-0.27083 0.0948,-0.50104 0.10833,-0.24375 0.284366,-0.40625 0.17604,-0.17605 0.406246,-0.27084 0.23021,-0.10833 0.501036,-0.10833 0.2573,0 0.4875,0.10833 0.24375,0.0948 0.4198,0.27084 0.17604,0.1625 0.27083,0.40625 0.10833,0.23021 0.10833,0.50104 z"
         style="font-style:normal;font-variant:normal;font-weight:bold;font-stretch:normal;font-family:'Space Mono';-inkscape-font-specification:'Space Mono Bold';stroke-width:0.33854181"
         id="path5109"
         inkscape:connector-curvature="0" />
      <path
         d="m 104.15542,160.80743 h 2.35625 v -6.22917 h -2.275 v -1.625 h 3.98125 v 7.85417 h 2.19375 v 1.625 h -6.25625 z"
         style="font-style:normal;font-variant:normal;font-weight:bold;font-stretch:normal;font-family:'Space Mono';-inkscape-font-specification:'Space Mono Bold';stroke-width:0.33854181"
         id="path5111"
         inkscape:connector-curvature="0" />
      <path
         d="m 113.84394,158.18035 h 0.325 l 1.7875,-2.46459 h 1.86875 v 0.0813 l -2.16666,3.07396 v 0.24375 l 2.38333,3.23646 v 0.0813 h -1.95 l -1.92292,-2.62708 h -0.325 v 2.62708 h -1.70625 v -9.47917 h 1.70625 z"
         style="font-style:normal;font-variant:normal;font-weight:bold;font-stretch:normal;font-family:'Space Mono';-inkscape-font-specification:'Space Mono Bold';stroke-width:0.33854181"
         id="path5113"
         inkscape:connector-curvature="0" />
    </g>
    <text
       xml:space="preserve"
       style="font-style:normal;font-weight:normal;font-size:10.58333302px;line-height:1.25;font-family:sans-serif;letter-spacing:0px;word-spacing:0px;fill:#000000;fill-opacity:1;stroke:none;stroke-width:0.26458332"
       x="1.3363476"
       y="10.219797"
       id="text5185"><tspan
         sodipodi:role="line"
         id="tspan5183"
         x="1.3363476"
         y="10.219797"
         style="stroke-width:0.26458332">1</tspan></text>
    <text
       id="text5189"
       y="69.553635"
       x="3.4745038"
       style="font-style:normal;font-weight:normal;font-size:10.58333302px;line-height:1.25;font-family:sans-serif;letter-spacing:0px;word-spacing:0px;fill:#000000;fill-opacity:1;stroke:none;stroke-width:0.26458332"
       xml:space="preserve"><tspan
         style="stroke-width:0.26458332"
         y="69.553635"
         x="3.4745038"
         id="tspan5187"
         sodipodi:role="line">2</tspan></text>
    <text
       xml:space="preserve"
       style="font-style:normal;font-weight:normal;font-size:10.58333302px;line-height:1.25;font-family:sans-serif;letter-spacing:0px;word-spacing:0px;fill:#000000;fill-opacity:1;stroke:none;stroke-width:0.26458332"
       x="4.543582"
       y="132.36197"
       id="text5193"><tspan
         sodipodi:role="line"
         id="tspan5191"
         x="4.543582"
         y="132.36197"
         style="stroke-width:0.26458332">3</tspan></text>
    <text
       id="text5197"
       y="189.82492"
       x="4.543582"
       style="font-style:normal;font-weight:normal;font-size:10.58333302px;line-height:1.25;font-family:sans-serif;letter-spacing:0px;word-spacing:0px;fill:#000000;fill-opacity:1;stroke:none;stroke-width:0.26458332"
       xml:space="preserve"><tspan
         style="stroke-width:0.26458332"
         y="189.82492"
         x="4.543582"
         id="tspan5195"
         sodipodi:role="line">4</tspan></text>
  </g>
</svg>
